<?xml version="1.0" encoding="UTF-8"?>
<svg viewBox="0 0 2003.9791 1663.26" xmlns="http://www.w3.org/2000/svg">
 <path d="m136.45 527.86c3.9859-76.923-22.978-195.09-6-231 5.8736-12.422 3-27 3-27-11-27.667-24.159-75.27-32-92s-14.437-15.004-24-16c-7.1416-0.7436-13.844 4.3042-20 8-5.9828 3.5918-10.433 9.293-16 13.5-6.8966 5.2114-11.992 12.597-21.5 14.5-11.418 2.2848-7.4675-5.7856-5-7.5 11.543-8.0204 2.4567-12.77-5-11-10.811 2.5656-13.324-1.8201-5-7 19.733-12.279 31.325-22.193 50.5-36.5s37.536-33.454 58.5-48.5c4.1514-8.9029 2.2103-21.997 5.5326-34.893 2.4451-9.491 11.344-24.835 35.306-40.972 0.17965-0.12098 24.239-10.35 40.337-11.043 8.0491-0.3462 41.108-3.8081 68.446 15.82 0.44565 0.31996 3.476 16.128 5.3854 19.475 1.9716 3.455 9.7003 10.128 10.773 25.316-4.4273-5.8124-6.6645-5.8476-9.0862-11.021-1.0043-2.1456-11.425-15.248-12.741-17.028-2.6325-3.5583-0.20486-10.629-0.69286-11.807-0.96529-2.3306-12.608 0.38308-14.427-2.8-6.1637-10.787-15.671-9.7819-25.087-9.7751-47.617 0.0341-64.993 15.709-69.717 22.128-3.7672 5.1185-6.2681 1.6042-9.03 4.8319-7.4022 8.6506-0.94786 11.006-4.9677 13.678-5.7836 3.844-7.9839 5.9317-10.279 10.245-3.5878 6.7414-6.3019 18.992-3.504 24.49 4.5958-0.50382 7.1143-0.95444 8.2516-1.1439 7.2572-1.2091 7.6613-9.7838 25-31 15.182-18.577 24.025-20.498 38.5-26 4.7151-1.7924 10.004-2.6978 15-2 4.1398 0.57827 8.4388 2.1537 11.5 5 13.794 12.825 22.431 23.355 38 39 3.3849 3.4015 6.4449 5.0863 8.5 13-10.317-4.9639-20.806-14.474-31-22-9.4666-6.9898-16.383-19.625-28-21.5-12.02-1.9404-23.871 6.0612-34.5 12-10.693 6.4156-24.885 20.716-28.5 32 5.3603-4.893 6.6706-7.5893 11-10 4.2404-2.3611 9.944-6.6654 14-4 3.2306 2.1231 3.4553 8.1651 1.5 11.5-2.7237 4.6456-10.685 2.7775-15 6-3.2325 2.4143-8.6916 5.6454-7.5 9.5 0.82513 2.6692 5.25 2.9933 8 2.5 4.561-0.8182 6.5422-7.235 11-8.5 3.0632-0.86926 7.5612-1.5258 9.5 1 1.952 2.5431 0.25162 6.8149-1.5 9.5-3.0312 4.6465-12.668 3.6146-14 9-1.0574 4.2744 6.3067 7.101 6.5 11.5 0.26521 6.0357-6.6881 10.513-7.5 16.5-2.7213 20.065-1.6622 43.105 9.5 60 6.3983 9.6842 18.032 16.709 29.5 18.5 30.414 4.7486 252.88-32.249 514.5-22 10.159 0.39798 19.024 7.1198 35-0.5 6.3664-3.0364 13.554-22.731 22.5-33 7.6067-8.7319 17.631-7.9094 12.5 5.5-4.4172 11.543-19.509 24.344-25.5 33-5.027 7.2634-4.5827 16.124-2.5 24 25.578 96.732-0.7638 143.81 4 215.5 3.4928 52.56 14.495 80.41 18 157 0.4343 9.4901-2.3759 16.648-2 25 0.2661 5.9124 3.7203 5.8894 3 17.5-0.4869 7.848-6.2535 3.793-6.5-0.5-0.236-4.1096-0.1224-11.961-4.5-14.5-2.6584-1.5419-6.5411 0.1566-9 2-3.0438 2.282-1.3812 4.3834-5.5 10-4.212 5.7436-7.3674 2.2037-7-2.5 0.4725-6.0483 1.5463-15.766 7.5-19 3.7795-2.0531 9.5741-1.1039 9.686-16.935 0.056-7.9155-5.1979-24.976-3.1602-30.951 3.6724-10.769-2.7748-22.079-3.2507-26.666 0.096-33.349 0.032-36.303-13.472-42.533-7.4274-3.4266-52.809 9.8434-61.743 15.414-5.7917 3.6117-12.247 8.1305-11.854 12.99 1.0134 12.511 4.5188 7.2824 6.1222 22.227 2.3989 22.36 1.6585 50.024 5.6707 63.955 2.1263 7.3829 6.2239 14.051 9.5 21 2.7228 5.7757 8.4806 10.812 8.4393 17.197-0.0927 14.324-4.1892 14.492-7.0607 3.1464-0.88699-3.5046-2.2118-7.9862-5.3787-7.8431-7.5512 0.3413-7.0909 13.365-11.086 19.782-4.575 7.3489-11.388 7.9904-7.5858-2.318 2.8862-7.8248 7.3577-9.2323 1.6716-24.964-10.566-29.234-11.413-45.311-18.611-67.519-2.3308-7.1909-2.1062-23.126-3.9276-30.894s-6.0491-6.8766-11.961-11.587c-1.9695-1.569-26.826 3.3075-33.353 4.0004-92.858 9.859-261.79 12.226-350.85 8.7673 7.3186 40.303 0.95374 78.381-10.793 121.73-2.4132 8.9059 2.5329 16.966 5.8787 22.964 5.3461 9.5839-1.4534 18.994-8.3284 6.2071-7.475-13.903-9.7271-19.077-18.55-0.6716-2.5872 5.397-14.741 14.236-13.5-2.2678 0.49812-6.6225 0.45878-9.2298 8.5858-14.404 7.0077-4.4614 8.9198-6.3424 9.9142-15.828 3.6466-34.786 9.8103-67.809 7.7322-109.1-25.424-12.602-78.01-12.843-78.01-12.843-1.4716 46.588-7.8975 95.142-1.4896 120.99 2.6677 5.0767 6.2368 10.944 12.232 13.889 6.9817 3.4291 9.8498 9.7211 8.2071 15.257-2.3393 7.8839-7.3209 10.852-10.879 1.7071-4.9786-12.796-12.716-15.98-21.414 6.4749-1.87 4.8279-26.47 13.095-10.197-1.7071 6.8723-6.2508 7.1384-23.043 3.5251-33.768-6.7505-20.037-3.18-61.888-1.4142-92.762 0.69374-12.129 4.0784-24.009 4.7071-36.142z"/>
 <path d="m904.95 692.86c7.5666-30.235 24.711-57.26 35.5-86.5 8.6848-23.536 19.281-46.77 23.5-71.5 1.3737-8.052 2.2955-16.531 0.5-24.5-0.983-4.3628-2.8377-8.8377-6-12-2.8988-2.8988-6.9156-5.1489-11-5.5-2.6729-0.22975-5.1065 2.9767-7.7071 2.318-1.9675-0.49836-2.2747-4.1026-4.2929-4.318-4.7077-0.50244-7.9105 5.2054-11.914 7.7322-2.8395 1.792-5.6453 3.6468-8.5858 5.2678-3.2256 1.7781-6.4699 3.5739-9.9142 4.8787-3.0978 1.1735-6.8565 0.74409-9.5858 2.6213-5.1086 3.5137-6.1473 11.14-11 15-4.4497 3.539-10.148 5.3848-15.672 6.7322-3.8012 0.92726-8.6431 1.2295-11.707 0.85356-5.0046-0.61406-7.5453-4.9328-1.6213-6.6109 7.319-2.0733 15.089-4.9586 25-17.475 2.6901-3.3972 4.903-4.9233 5-12-8.1344 3.5044-17.315 12.808-26 17-8.711 4.2046-9.4249-1.7903-3.1716-6.6464 6.5951-5.1215 12.184-8.5684 18.757-12.025 3.7664-1.9806 8.3766-2.3789 11.768-4.9498 1.3949-1.0575 1.8787-3.0456 3.2677-4.1109 1.8391-1.4106 4.6609-1.2118 6.3787-2.7678 1.4796-1.3402 1.469-3.855 2.9142-5.2322 1.5043-1.4336 4.1089-1.306 5.5858-2.7678 1.5235-1.5079 1.1372-4.5336 2.9142-5.7322 4.1085-2.7712 9.9656-0.24659 14.812-1.2825 16.93-3.6188 34.245-8.0981 49.054-17.065 8.7988-5.3278 15.77-13.341 22.491-21.127 6.4848-7.5127 9.9939-17.412 16.996-24.445 12.422-12.478 21.238-16.832 43.233-30.347 5.7313-3.5217 4.7792 8.7283 0.5 11-15.142 8.0386-28.88 18.316-40 31-4.5791 5.2232-9.4723 11.13-10.5 18-0.8613 5.7574-1.5649 15.291 4 17 3.0687 0.94235 19.156-9.8173 27.5-16.5 11.134-8.9171 15.839-24.286 29.5-31 4.4397-2.1819 12.668-0.90163 12 12-0.6183 11.941-8.5217 16.233-15 22.5-15.938 15.419-39.625 28.764-45 35-2.9879 3.4666-5.8077 10.337-2.5 13.5 2.3257 2.2239 23.203-13.881 34.5-17.5 5.3965-1.7288 17.205 9.2812 4.5 16.5-10.928 6.2088-26.787 2.6228-35.5 11.5-8.8452 9.0118-7.0104 14.879-9.8817 27.621s-10.449 32.362-12.118 44.879c-2.2487 16.858-2.8318 49.917 1.5 51 14.075 3.5179 26.697 9.2208 40.5 12 13.478 2.7138 27.706 0.9938 41 4.5 13.86 3.6555 25.519 13.835 39.5 17 16.756 3.793 34.405 0.2931 51.5 2 49.894 4.9821 58.92 19.025 148.5 24 40.058 2.2246 66.671-9.0755 157-9 17.263 0.014 32.218 9.0871 48.5 7.5 14.115-1.376 29.313-5.1762 40-14.5 16.74-14.605 16.31-42.334 31-59 8.4686-9.6078 18.741-20.889 31.5-22 13.371-1.1648 31.058 5.2065 36.5 17-8.1233-2.6528-24.03-8.3524-35.5-5-10.324 3.0175-18.845 11.85-24.5 21-4.6966 7.5992-3.813 17.48-6.5 26-3.2213 10.214-6.7006 20.426-11.5 30-3.3569 6.6964-12.564 11.53-12 19 0.4983 6.5977 11.78 8.497 13 15 5.7925 30.879-14.921 64.674-19.5 97.5-6.075 38.918-19.907 73.354-32.135 109.31-5.6037 16.479-16.005 31.986-18.865 48.689 4.9335 26.978-11.515 54.762-11 79.5-4.8568 21.626-12.451 41.979-19 61.5-2.8931 8.5451-10.717 15.512-11.5 24.5 9.6269 35.788-3.629 38.67-5.5 58-1.307 13.503-2.4854 27.019-4 40.5 0.5729 31.949-9.6592 73.665-11.5 94-4.5648 53.837-0.6224 45.829 1.5 51.5 2.4065 6.4302 8.384 7.1804 6.5 11-2.4508 4.9687-13.142 6.4067-16.5 2-7.0077-9.1965-2.0516-31.062-6-31-5.81 0.091-8.6096 17.98-14 28.5-12.69 24.767-15.846 11.007-16 5-0.278-10.858 14.188-22.089 26.5-61.5 5.997-19.197 7.0162-39.611 10-59.5 3.9658-26.434 10.282-58.619 10.5-79.5 7.1587-27.938 11.458-52.103 3.5381-75.205-1.5649-4.9228 0.5705-12.699-4.0381-14.295-2.5881-0.896-65.217-1.6958-98.5-6-1.2934 10.926-3.507 18.367-5.5 27.5-3.3957 15.562-6.7971 31.137-11 46.5-10.182 30.68-26.512 71.802-27.5 89.5-0.523 13.61 2.8566 11.618 2.5 17.5-0.5431 8.9588-6.1488 17.065-7 26-1.2995 13.641 0.2724 27.571 3 41 1.752 8.6257 5.3448 16.783 8.5 25 4.5598 11.875 3.772 11.415 2.5 17-2.9742 13.058-9.8429 6.7842-10.5-2-0.3625-4.8456-0.052-8.2381-1.5-12-2.193-5.6957-7.4539-9.8337-10.5-15-2.997 7.9648-5.3678 13.128-7 20-0.8933 3.7612 0.042 7.9552-1.5 11.5-7.8108 17.952-16.975 9.3218-14-3 1.7673-7.3192 9.2133-14.345 11-22.5 5.703-26.03 1.2754-40.474 4-60.5 1.8816-13.83 7.2374-27.1 8.5-41 0.6485-7.1392-1.6636-14.426-0.5-21.5 4.0311-24.504 18.473-46.182 25.5-70 4.4503-15.085 7.2075-30.621 10.5-46 1.957-9.1411 5.5-27.5 5.5-27.5s-10.526-0.8726-15.5-2.5c-8.0053-2.6192-14.35-9.3715-22.5-11.5-12.587-3.2875-26.016-0.6863-39-1.5-15.361-0.9627-31.188 0.1823-46-4-12.553-3.5444-22.37-14.242-35-17.5-64.818-16.719-87.822-7.3093-131.5-13-23.774-3.0975-47.163-8.9327-71-11.5-12.28-1.3226-25.746-7.0898-37-2-6.3798 2.8854-11.979 9.5728-13 16.5-8.2058 125.02-15.734 116.66-20.5 169.5-1.4177 17.697-0.9785 20.776 6 29.5 2.8321 3.5404 5.2362 8.9724 4 13.5-3.3639 12.32-6.4043 19.106-5 29.5 3.2798 24.276-10.269 12.405-10 2.5 0.3015-11.098 5.0895-28.343 4-34.5-0.4763-2.6917-3.0686-7.823-6.5-8-2.8247-0.1457-4.7165 3.4795-6 6-1.4548 2.8568-0.7132 6.3921-1.5 9.5-1.4748 5.8255-4.5681 11.164-6 17-0.9829 4.006-0.6618 7.7323-1.75 12.25-0.9789 4.0638-6.3571 18.207-13.5 0.25-1.3028-3.2751 1.0091-14.734 2.25-22 1.9769-11.576 5.2637-24.546 8.25-34.25 3.8005-10.678 12.48-21.665 13.75-28 9.0117-66.773 11.483-118.47 19.5-180.75 0 0-73.576-4.8588-86.121-6.4142-9.1276-0.5935-15.369 11.468-18.879 19.914-12.323 71.371-33.698 128.29-34 179 0.067 37.289 9.633 34.017 10 51.5 0.1875 8.9314-1.0995 18.051-4 26.5-7.1138 20.723-12.411 10.327-11.5 0 0.5-5.6667 4.4612-14.885 2.5-22-1.1693-4.2419-3.6009-10.404-8-10.5-3.9042-0.085-6.3125 5.2798-7.5 9-1.9824 6.2105 2.331 13.034 1.5 19.5-2.0153 15.68-7.4952 13.167-11.5-0.5-4.4534-15.198 0-30.186 2.5-45 1.8141-10.768 6.7365-20.817 9-31.5 7.4651-35.233 7.4715-70.116 15-107 8.8652-40.527 21.876-80.034 33-120 12.532-37.963 29.962-84.695 43-95.5 15.228-14.66 12.184-40.491 19-60.5 7.7868-22.86 19.573-44.468 25-68 5.5715-24.159 1.4809-49.949 7.5-74z"/>
 <path d="m1716.7 1208.1c-0.4221 0-0.8588 0.01-1.2812 0.031-0.4508 0.023-0.9245 0.072-1.375 0.125-6.543 0.7706-11.104 8.1557-17.656 8.8438-6.0552 0.6359-11.6-4.4997-17.688-4.5938-5.3171-0.082-10.25 3.7639-15.562 3.5313-6.9256-0.3033-13.147-8.386-19.781-6.375-4.8967 1.4843-32.502 17.256-9.5624 12.031 5.5262-1.2589 12.213-2.0217 16.969 1.0624 2.344 1.5203 4.0852 4.6182 3.9063 7.4063-0.1844 2.8712-6.1411 4.9771-9.4688 7.0937-5.5089 3.5039-7.3452 2.1259-17.281 9.2188-2.4162 1.8734-11.762 2.7399-10.75 5.625 1.4489 4.1329 7.6614 4.9886 12.031 5.2812 4.6518 0.3116 9.3201-1.688 13.438-3.875 3.2516-1.727 5.2258-5.3788 8.5-7.0624 2.4912-1.2811 5.4559-1.2747 8.125-2.125 4.4422-1.4156 9.079-6.658 13.062-4.9688 4.4571 1.89 10.948 2.3218 14.156 6.375 4.6192 5.8355 4.3065 14.495 4.25 21.938-0.078 10.354-5.3087 20.107-6.375 30.406-1.5047 14.536 1.7593 29.305 0 43.812-1.8993 15.663-9.4131 30.306-11.312 45.969-1.0783 8.8916 1.6147 18.065 0 26.875-1.3181 7.1908-5.342 13.61-7.7813 20.5-11.843 33.45-15.118 59.655-17.281 90.188-0.5078 7.1674 2.5058 16.422 1.0313 21.531-0.8318 2.8822-4.7403 3.8594-6.375 6.375-1.7889 2.7527-0.4198 8.1403-3.5313 9.1874-2.7586 0.9286-4.5969-5.229-7.4374-4.5937-5.4869 1.2273-5.5451 8.8068-9.1876 14.156-1.7909 2.6304 0.92 7.1008 3.7188 8.1562 1.8636 0.7027 4.0155-1.043 5.4375-2.4375 1.7846-1.7501 1.1069-5.4441 3.2187-6.7813 1.5933-1.0086 4.8796-1.7181 5.6563 0 1.377 3.0465-7.2172 12.668-2.8125 15.563 2.8409 1.8666 4.3689 2.0169 8.4688-5.6563 1.8706-3.5015 0.6365-9.2131 4.0624-11.219 3.5543-2.081 8.9028-0.4426 12.219 2 2.1217 1.5627 3.5919 4.4592 3.5312 7.0937-0.4073 17.697-7.4103 11.579-8.5 18.188-0.7035 4.268-2.6893 11.514 1.4063 12.906 2.7295 0.9276 4.215-3.955 6-6.2187 2.5091-3.182 4.7104-6.6457 6.5625-10.25 1.8208-3.5434 1.898-8.0241 4.4375-11.094 1.959-2.368 4.6768-4.9688 7.75-4.9688s6.8854 2.029 7.7813 4.9688c1.1999 3.9374-7.1396 7.8346-4.9376 11.312 1.686 2.6625 6.8694 2.1075 9.4376 0.2813 4.0562-2.8845 3.3682-9.403 4.5-14.25 1.7079-7.3149-1.0793-10.769 3.4374-22.281 6.7376-17.172 10.606-12.234 14-6.75 2.6721 4.3181 8.571 7.199 10.344 11.188 2.0665 4.6493-1.0783 9.7559-1.0312 14.844 0.1547 16.71-5.0452 22.84-1.8126 24.75 2.7747 1.6392 7.0326 3.6412 9.125-7.0937 1.4438-7.4072 4.5914-17.337 5.3438-22 0.91-6.5797-7.3317-17.559-9.5043-26.778-4.1805-17.739-6.216-39.16-6.6445-54.269 0.2684-11.773 1.1017-28.324 5.93-34.828 1.6882-1.9822 5.1793 0.5988 7.7813 0.7187 24.456 5.8497 50.554 0.034 68.594 5.2813 4.8269 1.5964 8.5103 6.3312 10.594 10.969 9.7658 32.415 7.0225 62.537 0.7151 86.265-3.6127 16.08-4.2568 40.365-16.371 50.172-6.2713 5.0767-13.399 7.3866-4.125 12.062 3.0133 1.5193 4.4753 5.8203 4.25 9.1875-0.361 5.39-7.4426 8.4384-8.7188 13.688-1.4343 5.8996-3.9829 15.798 1.625 18.125 5.2056 2.1599 9.4241-6.4564 13-10.812 7.1121-8.6638 12.406-18.946 16.094-29.531 2.6704-7.6646 2.5134-16.052 4.1562-24 1.5474-7.4869-1.6408-19.173 5.3438-22.281 4.7563-2.1171 11.936 2.5573 13.75 7.4375 1.2957 3.4861-0.9266 8.2981-3.9688 10.438-2.7795 1.9546-8.4039-2.736-10.188 0.1563-3.7076 6.0117 7.437 12.251 9.1875 19.094 2.3769 9.2918-0.76 19.429 1.5 28.75 1.7521 7.2263 4.6516 9.5901 9.1875 10.188 3.0294 0.399 6.0956-2.38 7.7187-4.9688 2.0191-3.2199 1.5148-7.5447 1.4063-11.344-0.1582-5.5385-4.9709-11.166-3-16.344 1.6202-4.2572 6.2389-8.0375 10.781-8.375 3.1266-0.2325 6.3319 2.0664 8.1874 4.5937 2.3725 3.2313 3.5917 7.924 2.5 11.781-1.3141 4.6439-8.2075 5.9875-10 10.469-0.6064 1.5164-1.0697 3.6722 0 4.9063 1.67 1.9265 6.738 3.8028 7.5938 1.0937 1.675-5.3025 4.8003-9.5306 9.375-10.188 4.4005-0.6319 8.4899 3.3934 11.438 6.8438 1.9674 2.3028 9.0333 2.497 9.0937-0.5313 0.1-4.9896-1.7022-5.7401-3.2187-8.2813-3.0635-5.1336-8.8308-8.3398-11.625-13.625-2.5122-4.7516-4.0362-10.192-4.25-15.562-0.1959-4.922-1.6191-12.256 2.75-14.531 4.8448-2.5224 10.585 3.4094 14.906 6.75 6.0425 4.671 9.7548 11.786 14.406 17.844 3.991 5.1978 11.876 3.63 10.781-2.5312-0.6736-3.791-0.943-7.8938-2.9374-11.188-4.6927-7.7495-15.096-10.715-20.125-18.25-1.8305-2.7421-1.281-6.7159-3.3126-9.3125-2.3175-2.9624-6.6559-3.6843-9.4062-6.25-2.8268-2.637-5.7988-5.5341-7.0625-9.1875-1.8042-5.2158 0.3443-11.069-0.1875-16.562-0.8449-8.7284-3.7784-17.163-4.7812-25.875-1.4683-12.755 0.9049-25.914-1.7813-38.469-1.4089-6.5851-6.5645-12.131-7.4063-18.812-0.7125-5.6563 0.6497-11.462 2.125-16.969 1.1257-4.2007 3.7823-7.875 5.0626-12.031 1.8755-6.0888 3.2408-12.371 3.7812-18.719 0.35-4.1115-2.0403-8.6135-0.3438-12.375 2.2709-5.0342 8.5325-7.0205 12.719-10.625 7.3978-6.3696 13.318-5.4612 21.906-19.438 17.005-14.34 34.072-34.023 42.781-34.281 5.5958 0.1848 10.49 4.5614 14.5 8.4688 2.8809 2.8072 4.6328 6.6243 6.375 10.25 2.5991 5.4091 1.7512 12.73 6 16.969 3.2722 3.2638 9.2537 7.1658 13.094 4.5937 3.7262-2.4957 1.6027-9.016 0.6876-13.406-1.6675-7.9971-5.9476-15.469-10.938-21.937-4.6927-6.0834-10.33-12.05-17.344-15.188-8.0194-3.5874-18.004-6.4626-26.156-3.1874-14.463 14.929-28.81 23.754-38.875 37.469-4.8775 5.8915-11.938 10.018-19.094 12.719-5.7851 2.1837-12.444 4.1385-18.406 2.5-7.6846-2.1114-11.655-11.184-18.719-14.875-6.8731-3.5913-14.591-5.7194-22.281-6.7187-6.7824-0.8813-13.734 1.7208-20.5 0.7187-10.839-1.6052-20.328-8.7257-31.125-10.594-8.2455-1.4266-16.759-1.1252-25.094-0.375-6.1002 0.5491-11.906 3.5847-18.031 3.5313-5.0617-0.044-10.876 1.5025-14.844-3.1563-3.768-4.4246-5.2419-19.262-4.25-42.094 0.3964-9.1241 5.7496-17.352 9.1875-25.813 2.3426-5.7649 3.4034-12.546 7.7812-16.969 3.1158-3.1471 9.2194-2.2351 12.031-5.6563 2.4683-3.0029 0.1148-8.5138 2.8125-11.312 3.2355-3.3569 9.3625-1.6101 13.438-3.875 4.1576-2.3109 11.422-7.533 10.594-9.5626-1.0596-2.5965-14.17 1.6179-21.187 0.7188-15.63-2.0024-6.9798-8.4963-16.281-12.031-5.9655-2.2672-12.231-5.0347-18.562-5.0938zm-30.219 222.19c5.3806 6.5478 14.028 8.3507 19.781 10.594-2.9836 19.614-4.1413 30.001-6.375 44.969-1.8592 12.459-0.2755 24.747-1.3125 37.594-1.407 17.431-7.8657 12.999-8.5312 16.312-1.2862 6.4015 1.4585 15.368-1.8126 20.75-2.6523 4.3651-6.2867 6.1049-10.344 6.5938-2.1931 0.2643-4.8702-0.4255-6.2813-2.125-6.9508-8.3716-6.0349-15.768-8.5937-26.344-3.2489-15.006-0.3113-37.74 3.6563-56.031 3.9526-18.222 13.272-40.128 19.812-52.312zm170.41 33.219c0.5976 6.3097 6.8848 14.733 8.5 22.625 2.5374 12.398 0.3456 25.354 1.6875 37.938 1.0751 10.082 4.8915 19.863 5.0938 30 0.1325 6.6404 2.2982 15.224-2.5626 19.75-2.3175 2.1581-6.7169 2.0985-9.4687 0.5312-2.4825-1.414-2.4784-5.1441-3.9375-7.5938-4.026-6.759-6.149-11.443-13.25-19.531-2.654-3.4328-1.0257-21.397-1.6133-32.092-0.8679-15.796-2.1852-29.938-2.8242-47.377 5.6967-0.6842 11.834-2.2243 18.375-4.25z"/>
</svg>
