<?xml version='1.0' encoding='utf-8'?>
<svg xmlns="http://www.w3.org/2000/svg" version="1.1" id="Layer_1" x="0px" y="0px" viewBox="0 0 3139.152 5000" enable-background="new 0 0 3139.152 5000"> <g> <path d="M1309.181,4785.059c0-8.717-6.868-8.644-11.857,0.127c-5.828,10.247-31.476,14.297-27.815,4.393 c3.778-10.222-3.978-15.747-8.981-6.397c-4.982,9.309-22.329,15.126-20.14,6.753c2.673-10.222-5.777-16.381-8.914-6.497 c-0.878,2.767-5.945,6.813-11.743,9.378c-14.235,6.297-13.791,11.74,0.809,9.915c6.054-0.757,17.08-1.223,24.502-1.038 c8.189,0.206,14.943-0.856,17.178-2.701c2.907-2.4,3.889-2.43,4.659-0.144c0.536,1.593,4.799,3,9.472,3.128 c15.383,0.418,20.057,2.789,20.352,10.323c0.147,3.755,0.408,7.608,0.579,8.564l0-0.001c0.42,2.339,2.09,2.19,7.417-0.661 c5.109-2.734,5.708-8.598,1.765-17.253c-2.079-4.563-2.079-6.604,0-8.683C1307.958,4792.771,1309.181,4788.628,1309.181,4785.059z"/> <path d="M1311.658,4795.764c-2.156,2.598-1.851,3.801,1.454,5.724c8.73,5.079,21.12,1.527,18.499-5.302 C1329.804,4791.477,1315.467,4791.175,1311.658,4795.764z"/> <path d="M1051.656,4877.204L1051.656,4877.204c21.759,14.785,58.824-6.155,40.266-22.748c-8.518-7.616-13.4-6.128-12.602,3.841 c1.261,15.757-13.606,18.39-26.522,4.696c-15.214-16.132,0.42-56.612,21.865-56.612c4.874,0,9.727-4.278,9.727-8.575 c0-5.716-81.642-4.192-86.904,1.622c-2.308,2.549-3.251,4.712-2.097,4.805c1.153,0.094,16.457,0.023,34.007-0.155l31.91-0.326 l-11.25,11.249C1030.119,4834.939,1030.842,4863.061,1051.656,4877.204z"/> <path d="M1211.396,4784.812c-0.913-9.151-5.674-10.581-9.232-2.773c-5.115,11.227-11.836,12.754-56.108,12.754 c-46.612,0-57.708,4.892-23.694,10.444c49.144,8.023,49.97,84.463,1.2,111.161c-16.84,9.218-41.184,8.695-59.768,8.674 c-22.089-0.024-43.693-9.946-60.748-23.49c-14.283-11.342-23.202-36.534-23.128-54.425c0.28-67.383,70.327-110.301,180.025-110.301 c26.23,0,34.079-2.495,29.772-9.464c-1.668-2.7-168.009-1.151-177.743,1.655c-14.395,4.149-2.634,7.163,23.754,6.086 c27.353-1.116,37.593,1.559,20.278,5.298c-13.54,2.924-36.055,16.771-52.722,32.425c-5.736,5.387-13.036,10.315-16.222,10.951 s-11.983,2.839-19.548,4.896c-7.565,2.057-25.293,4.28-39.396,4.939l-25.642,1.2l16.222-4.292 c79.528-21.041,118.922-84.213,73.84-118.411c-31.67-24.024-73.571,3.633-57.275,37.806c5.669,11.889,24.375,15.056,33.169,5.616 c8.688-9.326,4.549-22.737-7.016-22.737c-6.629,0-12.822,6.825-7.794,8.589c9.435,3.31,9.201,12.268-0.32,12.268 c-17.775,0-18.621-29.126-1.108-38.183c29.513-15.262,57.584,13.861,45.84,47.556c-11.569,33.191-64.834,61.726-130.223,69.762 c-18.24,2.242-22.174,3.411-21.583,6.414c1.155,5.874,126.329,4.958,135.408-0.991l6.275-4.111l-5.442,9.022 c-12.241,20.296-13.947,25.709-13.945,44.251c0.002,20.061,7.249,40.687,22.158,54.423c17.599,16.214,39.944,26.383,63.586,29.728 c71.174,10.075,122.07-22.974,117.488-76.289c-1.896-22.069-15.552-42.94-31.163-47.631c-11.546-3.469-3.707-4.696,25.745-4.03 C1202.324,4804.418,1212.912,4800.002,1211.396,4784.812z"/> <path d="M1122.314,4820.117c7.032-5.532,8.508-12.904,2.051-10.246c-14.573,5.999-23.754,2.259-23.754-9.676 c0-8.796,7.647-18.107,13.14-16c9.043,3.47,14.669,4.012,14.669,1.414c0-11.095-25.655-15.666-34.538-6.153 c-10.954,11.73-6.317,38.188,7.469,42.621C1112.48,4825.655,1115.65,4825.358,1122.314,4820.117z"/> <path d="M1343.777,4789.149c-5.48,4.959-5.678,9.736-0.634,15.31h0c8.48,9.37,16.432,2.158,14.961-13.566 C1357.641,4785.945,1348.542,4784.837,1343.777,4789.149z"/> <path d="M1718.282,389.33c4.728,0,6.278-7.425,2.367-11.337c-5.165-5.165-12.963,2.117-8.293,7.744h0 C1713.996,387.714,1716.662,389.33,1718.282,389.33z"/> <path d="M1720.624,522.392c-10.998-2.76-19.595,7.54-12.344,14.791h0c3.84,3.84,14.602,3.49,17.984-0.584 C1730.19,531.868,1727.071,524.01,1720.624,522.392z"/> <path d="M1446.901,435.212c6.034-0.862,8.128-12.124,2.646-14.227c-8.017-3.076-15.424,5.35-10.217,11.624 C1440.833,434.42,1444.24,435.592,1446.901,435.212z"/> <path d="M1711.025,356.15c14.816-5.686,1.712-13.34-25.224-14.734c-21.753-1.126-24.502-1.859-44.865-11.968 c-13.545-6.724-32.645-25.896-39.831-39.982c-6.367-12.481-5.634-16.397,1.19-6.355c22.484,33.088,70.759,19.665,70.759-19.675 c0-21.606-25.64-34.96-36.196-18.852c-6.359,9.705,1.311,22.335,8.386,13.81c5.692-6.858,16.222-0.175,16.222,10.296 c0,39.683-57.024,26.922-61.852-13.841c-1.641-13.858-2.826-14.802-18.922-15.084c-14.091-0.247-15.182,1.022-17.762,20.656 c-4.6,35.017-51.575,42.41-57.824,9.101c-2.238-11.93,10.206-23.746,14.159-13.445c2.152,5.609,9.943,4.056,12.969-2.584 c2.518-5.528,2.089-6.661-4.879-12.887c-22.694-20.276-46.972,14.952-29.01,42.094c14.418,21.787,38.479,24.391,58.259,6.305 c7.468-6.828,6.43-1.723-2.068,10.176c-20.588,28.829-40.334,38.032-87.376,40.727l-19.342,1.108l1.657-20.454 c0.911-11.25,2.703-21.757,3.981-23.349c1.574-1.961,1.387-5.157-0.581-9.909c-2.505-6.048-2.346-7.631,1.158-11.503 c4.072-4.5,3.422-11.614-1.061-11.614c-3.737,0-2.801-9.257,1.086-10.749c1.912-0.733,3.476-2.659,3.476-4.278 c0-1.619-1.564-4.242-3.476-5.829c-5.147-4.272-4.415-11.587,1.159-11.587c2.549,0,4.635-1.403,4.635-3.117 c0-1.714-2.086-5.004-4.635-7.312c-2.549-2.307-4.635-5.695-4.635-7.528c0-1.834,2.086-3.88,4.635-4.546 c5.578-1.459,6.298-9.941,0.844-9.941c-3.16,0-3.553-1.736-2.362-10.428c1.561-11.387-0.768-13.272-8.149-6.593 c-3.942,3.567-4.238,9.15-4.238,79.815c0,41.789-0.782,76.329-1.738,76.756c-0.956,0.427-10.212,0.413-20.57-0.031l-18.832-0.807 l-7.586-15.476c-33.42-68.171,22.356-155.68,99.226-155.68c31.127,0,59.884,17.881,72.186,44.885 c7.817,17.16,13.225,8.845,5.801-8.921c-15.053-36.027-72.927-58.39-108.789-42.036c-5.098,2.325-11.356,4.983-13.905,5.907 c-26.213,9.499-48.113,30.259-62.654,59.393l-9.187,18.406l0.144,32.444c0.134,30.162,0.574,33.33,6.249,45.032 c7.567,15.602,7.697,15.421-12.413,17.402c-9.103,0.897-17.73,2.6-19.17,3.786c-1.441,1.185-7.813,5.63-14.16,9.878 c-29.74,19.902-34.503,57.8-9.648,76.758c21.079,16.078,68.89,2.799,93.356-25.927l11.915-13.99l16.158,16.53 c38.759,39.651,44.654,67.333,19.232,90.3c-11.047,9.98-14.029,10.573-14.029,2.787c0-7.695-7.605-11.843-12.585-6.863 c-2,2-3.637,5.615-3.637,8.032c0,7.146-13.749-0.263-21.553-11.614c-11.046-16.068,3.947-38.106,20.723-30.462 c7.921,3.609,6.852,12.998-1.488,13.061c-4.611,0.035-5.794,1.217-5.794,5.794c0,7.751,28.934,12.073,36.285,5.42 c6.212-5.622,5.445-10.005-1.53-8.74c-4.961,0.9-6.516-0.419-10.736-9.105c-8.921-18.363-26.869-23.251-41.259-11.237 c-16.461,13.742-9.406,46.529,12.411,57.68l0-0.001c7.083,3.62,20.308,4.852,35.588,3.314c13.87-1.395,30.654-27.952,30.654-48.502 c0-28.187-9.098-42.619-48.302-76.62c-2.75-2.385-5-6.271-5-8.636c0-3.823,0.4-3.729,3.608,0.851 c4.092,5.842,8.536,6.588,12.292,2.064c3.872-4.665-2.213-11.907-8.6-10.237c-5.391,1.41-6.224-0.665-2.804-6.985 c1.198-2.213,2.805-6.984,3.572-10.601c1.169-5.515,1.952-6.114,4.849-3.71c22.013,18.27,92.792-14.437,113.145-52.285 c6.519-12.121,6.886-9.198,1.327,10.567c-4.994,17.759,1.916,29.563,12.692,21.683c3.443-2.517,5.024-2.454,9.34,0.373 c11.12,7.286,16.508-1.117,14.023-21.865l-1.567-13.075l6.841,10.428C1626.782,340.824,1683.682,366.643,1711.025,356.15z M1412.29,397.916c-11.239,12.848-27.046,21.931-47.758,27.444l0,0c-15.813,4.209-17.36,4.123-29.202-1.621 c-38.849-18.843-11.224-67.005,41.683-72.671l15.422-1.652l15.107,15.902C1425.587,384.311,1425.388,382.944,1412.29,397.916z M1435.651,363.26c-5.565,12.174-8.376,12.296-17.641,0.768c-9.996-12.438-9.989-12.449,7.659-12.707 c8.604-0.125,15.383,0.294,15.063,0.932C1440.413,352.89,1438.127,357.844,1435.651,363.26z M1592.892,320.119 c-1.163,1.922-12.568,3.514-17.748,2.477c-5.267-1.054-5.146-7.942,0.579-32.916c2.484-10.834,4.616-23.348,4.738-27.809 c0.152-5.53,1.67-1.474,4.772,12.746C1591.299,302.431,1593.975,318.328,1592.892,320.119z"/> <path d="M1439.969,522.422c-6.225,1.562-7.744,9.846-2.725,14.865c3.978,3.978,15.8,2.39,18.885-2.538 C1461.256,526.561,1451.904,519.426,1439.969,522.422z"/> <path d="M784.527,4849.395c0.78,3.108,0.523,5.706-0.571,5.771c-1.094,0.066-13.461,0.453-27.481,0.861 c-57.247,1.666-79.302,52.35-28.345,65.139c3.24,0.813,6.414,3.477,7.052,5.917v0.001c1.429,5.467,9.825,5.883,12.763,0.633 c1.171-2.094,1.623-5.743,1.004-8.111c-1.514-5.789,3.25-5.496,6.402,0.394c2.742,5.123,5.608,4.394,9.214-2.344 c1.815-3.392,1.046-5.854-3.523-11.284c-5.633-6.695-4.85-10.855,1.597-8.484c6.768,2.488,10-2.579,5.766-9.041 c-4.54-6.93-7.626-7.458-13.339-2.288c-6.051,5.476-9.783,1.935-5.25-4.983c3.601-5.497,3.536-5.673-2.059-5.673 c-6.937,0-9.907,3.283-12.054,13.325c-1.609,7.526-0.444,8.729,7.448,7.705c3.523-0.457,3.721,3.226,0.498,9.25 c-7.115,13.293-32.363-0.277-32.363-17.395c0-16.908,17.794-24.045,52.227-20.95c16.944,1.523,20.632,2.837,21.004,7.486 c0.799,9.996,0.843,10.057,5.431,7.602c5.631-3.014,6.279-28.181,0.944-36.644C786.759,4839.73,782.61,4841.759,784.527,4849.395z"/> <path d="M798.109,4806.233c-3.564-6.891-1.953-9.067,3.026-4.087c3.341,3.341,14.431-0.953,14.431-5.587 c0-7.039-9.185-9.226-17.685-4.21c-11.298,6.666-15.105,5.897-6.068-1.225c7.779-6.13,9.285-11.898,5.133-19.657 c-3.909-7.304-9.188-5.544-9.188,3.063c0,8.131-4.645,11.37-20.334,14.178c-25.61,4.583-498.694,1.585-508.113-3.219 c-10.384-5.297-9.918-9.706,1.323-12.527c10.164-2.551,7.508-10.612-3.497-10.612c-12.951,0-17.509,8.208-11.483,20.68 c2.255,4.668,3.919,10.222,3.699,12.341c-0.373,3.568,19.096,3.921,262.675,4.763c272.668,0.942,269.654,0.836,276.304,9.724 c0.954,1.274,1.132,5.185,0.395,8.69l0,0c-0.932,4.436-0.402,6.363,1.742,6.338C799.12,4824.785,802.913,4815.524,798.109,4806.233 z"/> <path d="M809.639,4850.889c-5.9-0.844-11.449,8.461-9.225,15.469v0c1.13,3.561,3.465,4.911,8.488,4.911 C817.847,4871.269,818.537,4852.162,809.639,4850.889z"/> <path d="M897.828,4716.837c6.439-2.471,4.163-10.108-3.013-10.108c-12.644,0-16.244,12.584-6.972,24.372l5.08,6.457l46.291-1.546 c45.983-1.537,52.471-2.787,52.471-10.116c0-2.485-1.126-2.892-4.055-1.463c-4.658,2.271-80.165,4.039-88.045,2.061 C893.672,4725.01,892.554,4718.861,897.828,4716.837z"/> <path d="M696.218,4868.951c14.728-6.313,12.495-13.919-5.785-19.702c-10.786-3.412-15.736-18.009-8.221-24.245 c3.882-3.222,8.213-1.361,8.213,3.528c0,1.837,2.086,3.339,4.635,3.339c7.323,0,6.277-11.077-1.32-13.965 c-16.943-6.441-34.841,20.273-20.06,29.942c5.122,3.351,7.848,12.568,6.141,20.767c-2.009,9.65-1.555,14.167,1.838,18.295l0,0 c3.206,3.9,11.083,3.69,11.083-0.295c0-1.756-1.564-4.491-3.476-6.078C683.743,4875.956,685.082,4873.724,696.218,4868.951z"/> <path d="M619.679,4893.864c-1.991-12.034-2.703-13.326-7.349-13.326c-2.015,0-4.931-1.733-6.48-3.853 c-3.107-4.25-10.437-2.814-10.437,2.042c0.002,1.633,2.579,5.965,5.727,9.626c3.148,3.661,6.346,8.614,7.106,11.008h0 C611.475,4909.536,621.477,4904.726,619.679,4893.864z"/> <path d="M850.428,431.513c14.998,7.351,30.063,1.689,30.063-11.301c0-6.678-5.845-7.154-9.27-0.755 c-3.343,6.245-15.991,6.195-22.738-0.09c-12.21-11.376-0.734-34.671,17.08-34.671c12.194,0,30.163,8.055,58.338,26.151 c24.18,15.529,49.349,26.933,78.692,23.786c21.011-2.253,46.232-12.048,53.853-33.715c7.768-22.085,27.918-21.946,27.971,0.193 c0.088,37.377,81.964,44.521,129.786,11.324c45.404-31.518,83.428-34.418,83.428-6.362c0,13.993-14.133,22.436-24.47,14.617 c-10.594-8.013-17.784,0.796-8.774,10.752c16.355,18.072,48.557-8.665,40.358-33.508c-9.84-29.815-40.243-29.607-87.066,0.594 c-7.899,5.095-27.494,15.1-46.828,23.91c-18.721,8.531-59.483-4.465-74.258-23.675c-10.067-13.089-9.722-15.038,2.318-13.055 c18.491,3.046,19.119,2.936,19.119-3.329c0-5.409-0.693-5.755-10.428-5.205c-16.749,0.945-20.857-0.777-20.857-8.743 c0-7.639,10.95-9.893,21.258-4.376c5.251,2.811,8.091,0.967,9.254-6.008c0.72-4.318-0.296-4.579-14.87-3.818 c-18.404,0.962-18.715,0.287-7.765-16.831c12.467-19.489,31.797-26.497,52.856-19.162c24.717,8.609,32.287,38.644,14.446,57.318 c-9.788,10.245-5.042,18.339,5.164,8.806c21.211-19.813,15.715-61.911-9.455-72.427c-32.828-13.717-60.136-3.084-74.946,29.181 c-8.099,17.646-17.736,18.877-23.022,2.941c-9.184-27.682-56.812-49.094-75.261-33.835c-1.706,1.411-6.53,5.313-10.719,8.672 c-22.651,18.158-13.604,73.999,10.49,64.753c3.076-1.18,2.202-2.958-4.799-9.759c-28.229-27.419,3.58-69.179,42.715-56.076 c31.272,10.47,42.129,43.268,11.406,34.457c-8.997-2.58-15.701,1.367-13.236,7.791c1.108,2.888,4.322,3.283,17.643,2.166 c14.229-1.193,16.488-0.844,17.87,2.757c3.179,8.284-1.976,11.399-19.044,11.505c-14.454,0.089-16.032,0.555-16.032,4.734 c0,4.255,1.283,4.571,15.643,3.85c11.669-0.586,15.643-0.022,15.643,2.219c-0.004,6.806-14.804,17.559-19.281,21.546 c-14.038,12.5-30.972,19.919-49.661,16.396c-20.641-3.891-40.364-13.834-57.907-25.079c-10.652-6.828-21.729-13.404-33.517-18.094 c-17.597-7.002-33.843-12.204-48.315,4.279C831.008,400.334,834.712,423.809,850.428,431.513z M1069.361,361.521 c5.076,0,5.794,1.004,5.794,8.111s-0.717,8.111-5.794,8.111c-5.076,0-5.794-1.004-5.794-8.111S1064.285,361.521,1069.361,361.521z"/> <path d="M1064.395,397.412c1.455,3.792,3.697,4.292,9.412,2.099c4.997-1.918,4.616-7.191-0.726-10.051 C1067.851,386.661,1062.24,391.797,1064.395,397.412z"/> <path d="M825.667,4787.841c-6.801,0-7.893,2.168-6.235,12.384c2.068,12.744,16.991,11.027,16.991-1.956 C836.423,4791.953,832.182,4787.841,825.667,4787.841z"/> <path d="M824.28,412.08c11.013-1.267,9.186-18.115-1.964-18.115c-4.703,0-8.173,9.076-5.817,15.213 C817.409,411.552,820.112,412.56,824.28,412.08z"/> <path d="M1772.704,4785.523c-3.363,0-5.122,13.361-2.423,18.404h0c5.15,9.623,16.295,3.441,16.295-9.039 C1786.575,4790.55,1779.13,4785.523,1772.704,4785.523z"/> <path d="M2448.661,4853.759c11.56-13.121,12.543-20.791,3.971-30.979c-10.112-12.017-30.065-7.674-25.029,5.448 c2.009,5.234,7.855,4.497,7.855-0.991c0-5.163,4.542-6.119,8.806-1.854c8.952,8.952,0.974,22.777-15.074,26.12 c-13.259,2.763-12.115,17.447,1.359,17.447c8.562,0,13.629,8.161,7.202,11.6c-5.178,2.771-6.116,8.264-1.715,10.04l0,0 c12.213,4.928,16.233-6.275,9.848-27.445C2445.028,4860.303,2446.105,4856.66,2448.661,4853.759z"/> <path d="M2458.228,4882.855c4.624,0,7.356-4.184,7.356-11.261c0-2.162,2.086-5.716,4.635-7.899 c4.911-4.205,5.88-10.046,2.541-15.319c-2.584-4.079-7.502-1.163-6.658,3.948c0.451,2.73-1.29,4.103-5.869,4.627 c-7.657,0.878-10.416,6.168-6.491,12.452c1.537,2.46,2.152,6.493,1.368,8.962l0,0 C2454.031,4881.765,2454.788,4882.855,2458.228,4882.855z"/> <path d="M2368.255,4856.238l-24.333-0.042l-0.726-7.532c-0.786-8.15-4.937-9.798-9.829-3.903 c-2.423,2.918-2.454,5.172-0.162,11.511c2.174,6.014,2.215,9.068,0.172,12.886c-1.951,3.646-1.998,6.498-0.172,10.505 c3.294,7.238,9.558,7.232,9.558,0c0-17.348,68.112-15.611,72.802,1.856c5.942,22.126-16.459,41.458-31.089,26.828 c-6.714-6.714-6.114-12.411,1.159-11.02c6.879,1.315,8.736-13.78,2.347-19.083c-4.697-3.898-10.458-1.26-10.458,4.789 c0,4.181-0.944,4.722-6.015,3.449c-6.967-1.749-12.524,1.909-12.524,8.244c0,3.096,1.671,4.351,5.794,4.351 c7.185,0,7.425,2.986,0.602,7.517c-4.486,2.979-4.874,4.353-2.849,10.109c2.846,8.093,9.367,10.004,11.476,3.363 c2.195-6.917,5.835-5.843,5.835,1.722c0,3.569,1.251,7.74,2.781,9.27l0.001-0.008c4.44,4.44,11.124,3.375,11.124-1.772 c0-4.916,6.317-9.352,13.319-9.352c19.43,0,25.409-34.464,8.945-51.563C2404.25,4856.15,2404.841,4856.298,2368.255,4856.238z"/> <path d="M2314.121,4853.147c-3.789,2.12-5.418,15.736-2.26,18.894h0c3.34,3.34,12.309,1.335,14.792-3.306 C2332.139,4858.485,2323.588,4847.85,2314.121,4853.147z"/> <path d="M3107.654,4784.241c-5.77,5.222-6.052,9.929-0.935,15.583v0.001c4.815,5.319,6.075,5.296,11.055-0.207 C3126.326,4790.169,3116.911,4775.864,3107.654,4784.241z"/> <path d="M2339.283,4816.768c0-16.782,1.249-16.858,305.902-18.518c184.688-1.007,216.428-0.697,221.856,2.162 c7.239,3.813,9.874,1.573,7.812-6.643c-0.843-3.359-0.051-6.479,2.099-8.263c9.994-8.294-1.309-30.485-12.629-24.795 c-7.879,3.96-8.458,8.187-1.486,10.837c7.076,2.691,7.508,5.498,1.732,11.274c-3.722,3.72-425.615,10.254-505.279,7.824 c-14.02-0.428-22.037-5.982-20.406-14.137c1.956-9.782-1.662-13.842-7.571-8.494c-5.008,4.533-6.417,13.903-2.459,16.35 c4.506,2.785,2.236,5.135-3.838,3.974c-5.623-1.075-12.384,3.753-12.384,8.842c0,3.242,12.26,7.136,14.721,4.675 c5.726-5.726,8.747-2.397,3.945,4.346c-4.116,5.781-4.419,7.664-2.062,12.836l0.001,0 C2332.97,4827.234,2339.283,4825.807,2339.283,4816.768z"/> <path d="M3016.664,4798.964c7.488-7.488,0.234-18.279-8.974-13.352c-5.414,2.897-5.724,7.592-0.825,12.491 C3011.236,4802.474,3012.999,4802.629,3016.664,4798.964z"/> <path d="M3046.971,4801.292c7.518-0.872,10.336-14.083,3.558-16.684c-9.448-3.625-15.058,3.254-11.09,13.597 C3040.387,4800.676,3043.011,4801.75,3046.971,4801.292z"/> <path d="M2945.287,4793.634c0-4.189-1.245-5.793-4.498-5.793c-5.46,0-7.588,2.955-5.69,7.902 C2937.473,4801.929,2945.287,4800.312,2945.287,4793.634z"/> <path d="M3070.352,4701.842c-20.265,16.918-1.687,51.763,21.097,39.569c7.675-4.107,5.873-12.179-2.318-10.38 c-13.715,3.012-17.74-15.05-4.886-21.929c14.522-7.772,31.117,4.282,31.117,22.604c0,30.456-34.478,47.658-66.384,33.121 c-17.61-8.023-31.766-11.747-44.666-11.747c-20.753,0-16.176,5.321,8.609,10.006c13.931,2.634,30.876,6.261,43.08,13.787 c11.58,7.141,19.17,19.257,26.865,30.11c9.03,12.736,14.673,35.762,6.673,50.203c-15.519,28.015-56.375,19.565-81.418-16.837 c-24.514-35.634-24.569-142.879-0.063-120.701c8.605,7.788,12.842-4.521,4.446-12.917c-6.217-6.216-11.931-5.837-19.636,1.304 c-6.351,5.886-6.451,5.899-11.346,1.479c-10.325-9.325-22.884-6.807-25.149,5.041c-2.011,10.521,2.356,14.221,8.703,7.374 c9.892-10.674,15.667-3.41,14.535,18.285l-0.709,13.602l-10.428,0.931c-31.105,2.777-70.159,27.736-91.433,58.434l-6.384,9.212 l-155.606,0.769c-164.823,0.814-168.64,1.059-189.073,12.084c-3.261,1.76-9.467,5.039-13.79,7.287 c-4.324,2.248-13.97,10.027-21.436,17.288c-7.467,7.261-13.576,11.765-13.576,10.008s-1.564-3.193-3.476-3.193 c-4.017,0-4.609,4.893-1.024,8.477c1.723,1.724,0.446,5.853-4.303,13.908c-23.611,40.044-15.331,84.173,19.232,102.503 c32.739,17.363,70.925-3.079,73.145-39.157c1.235-20.073-0.018-24.997-10.13-39.815c-5.491-8.047-10.718-16.574-11.615-18.949 c-1.097-2.903-3.141-3.923-6.236-3.114c-5.003,1.309-8.467-1.77-4.647-4.131c3.585-2.216,2.81-10.452-0.984-10.452 c-1.836,0-3.984,1.043-4.772,2.317c-3.547,5.74-10.338,2.447-8.978-4.354c1.602-8.01-3.085-12.154-7.271-6.429 c-1.54,2.107-4.426,3.83-6.411,3.83c-6.702,0-10.942,2.79-10.942,7.201c0,2.413,1.043,4.387,2.317,4.387s2.317,3.128,2.317,6.952 c0,9.373,5.65,9.096,11.835-0.579l4.814-7.532l-1.409,9.908c-1.598,11.238,3.378,16.055,8.853,8.568 c3.253-4.448,8.351-2.912,8.351,2.518c0,1.837,1.924,3.339,4.276,3.339c27.703,0,29.181,63.619,1.834,78.988 c-51.796,29.111-88.182-46.404-50.296-104.383c31.251-47.825,48.697-50.683,310.994-50.958l117.332-0.123l-0.301-12.626 c-0.44-18.443,21.69-39.898,50.336-48.801c6.564-2.04,13.759-4.705,15.99-5.922c3.642-1.988,4.056-0.898,4.056,10.674 c0,12.748,5.679,42.746,9.466,49.998c3.128,5.991-0.294,6.923-7.244,1.974c-12.939-9.213-41.145-5.007-53.06,7.913 c-20.319,22.032,0.892,58.615,26.844,46.3c9.822-4.661,11.465-27.493,1.979-27.493c-3.714,0-4.484,1.291-3.874,6.496 c1.542,13.157-7.853,17.042-17.094,7.071c-11.188-12.073-3.604-29.682,15.212-35.32c18.252-5.468,34.411,1.76,54.656,24.448 c28.553,32,59.249,37.847,83.976,15.997c19.537-17.264,14.208-52.187-12.382-81.149c-12.664-13.793-12.681-12.858,0.242-12.858 c13.275,0,26.853-4.162,34.863-15.368c9.89-13.837,13.534-41.953,1.323-55.351 C3103.806,4693.291,3083.256,4691.069,3070.352,4701.842z"/> <path d="M2089.583,405.118c4.801-0.925,6.738-8.272,3.131-11.879c-3.536-3.536-10.606,3.693-8.636,8.829h0 C2084.886,404.173,2087.363,405.545,2089.583,405.118z"/> <path d="M2263.308,4790.158c-54.541,0-122.707-34.898-133.796-68.5c-12.335-37.375,25.741-69.927,52.841-45.176 c13.197,12.053,8.905,34.882-6.558,34.882c-7.305,0-10.446-5.316-5.545-9.384c4.774-3.962,4.12-8.595-1.462-10.367 c-11.229-3.564-18.094,13.079-9.104,22.068c13.604,13.604,37.079,2.153,37.079-18.086c0-41.056-54.916-49.758-74.295-11.772 c-19.486,38.196,19.509,87.296,81.86,103.074c8.622,2.182,15.311,4.333,14.864,4.779c-1.939,1.939-54.856-3.961-66.169-7.377 c-7.881-2.38-13.264-2.952-14.66-1.556s-6.153-2.015-12.954-9.286c-11.924-12.748-34.605-27.014-53.208-33.468 c-6.692-2.321-12.167-5.172-12.167-6.334c0-1.705,46.031-0.417,56.406,1.579c1.327,0.255,2.801-1.301,3.275-3.459 c1.359-6.19-7.631-6.736-99.078-6.014c-101.58,0.802-126.091,6.272-40.555,9.05c42.94,1.395,55.147,3,74.158,9.75 c37.817,13.427,94.914,53.703,68.333,48.202c-16.492-3.413-79.105-0.308-78.31,3.884c0.431,2.274,3.321,4.24,6.833,4.648 c26.183,3.043,41.577,42.409,23.966,61.284c-10.742,11.513-34.568,6.658-26.977-5.497c5.711-9.145-1.913-12.012-10.497-3.949 c-15.588,14.644,8.903,34.089,31.027,24.636c27.385-11.702,31.701-51.959,7.372-68.768c-13.26-9.161-11.881-9.602,26.341-8.417 l35.341,1.096c0,0,3.675,8.723,3.675,8.724c9.678,22.975,6.37,51.835-4.156,73.948c-5.617,11.8-12.3,19.514-24.477,24.686 c-25.443,10.806-52.28,17.964-79.93,13.107c-21.93-3.852-45.072-14.443-57.562-33.687c-5.006-7.713-7.883-16.663-7.883-25.886 c0-29.428,18.793-55.852,42.502-59.761c10.476-1.727,16.117-5.037,14.113-8.28c-2.083-3.37-21.508-1.756-24.81-1.836 c-17.929-0.431-36.045,0.479-53.928-0.921c-8.28-0.648-16.478-1.545-19.741-10.12c-2.893-7.608-10.082-2.968-8.469,5.466 c0.895,4.682,0.103,5.355-6.302,5.355c-8.296,0-12.888-3.529-12.888-9.903c0-2.907-1.34-4.066-4.056-3.508 c-2.955,0.607-3.96,2.877-3.705,8.364c0.278,5.961-0.447,7.317-3.476,6.504c-2.105-0.565-6.695-1.665-10.2-2.445 c-4.885-1.087-6.373-2.777-6.373-7.24c0-6.633-6.388-10.299-9.468-5.435c-4.026,6.357,6.477,25.055,12.116,21.569 c1.224-0.755,15.99-1.123,32.812-0.813c16.823,0.309,44.404,0.487,61.293,0.396c34.821-0.187,34.59-0.272,19.698,7.299 c-51.014,25.938-34.124,99.283,27.515,119.482c18.021,5.906,40.987,5.562,59.63,3.222c14.82-1.86,29.346-6.073,42.847-12.464 c10.129-4.795,16.764-10.321,23.254-19.664c15.145-21.801,21.257-53.014,14.584-78.762c-1.015-3.917-2.367-7.748-4.118-11.398 c-3.632-7.57-6.104-14.262-5.496-14.871c0.609-0.608,1.107-0.001,1.107,1.349c0,5.003,128.944,9.192,133.79,4.346 C2284.218,4793.856,2277.014,4790.158,2263.308,4790.158z"/> <path d="M1847.464,4792.417c-12.973-1.305-15.93-3.083-17.244-10.37c-1.059-5.868-7.385-6.073-8.501-0.275 c-0.462,2.398,0.494,6.851,2.123,9.896c2.276,4.253,2.329,6.17,0.228,8.27c-3.935,3.935-3.364,13.492,1.101,18.426l0,0 c7.072,7.815,15.023,3.762,9.614-4.9c-4.313-6.905,2.1-12.39,14.808-12.663C1864.896,4800.472,1863.253,4794.004,1847.464,4792.417 z"/> <path d="M1808.384,4790.619c-7.57-0.739-14.138,4.362-11.374,8.834c0.865,1.4,5.387,2.228,10.049,1.839 C1818.452,4800.343,1819.524,4791.706,1808.384,4790.619z"/> <path d="M668.617,4857.425c-4.349-1.435-8.487-4.123-9.197-5.973c-0.71-1.851-2.367-3.364-3.681-3.364 c-3.302,0-3.011,10.04,0.391,13.441c2.163,2.163,1.648,2.781-2.317,2.781c-3.156,0-5.098,1.431-5.098,3.757 c0,2.382-5.751-1.647-15.713-11.008c-36.006-33.833-40.154-34.457-232.583-34.457h-145.17l-12.434-13.325 c-14.638-15.688-33.763-31.898-41.599-35.261c-3.058-1.313-7.125-3.311-9.037-4.44c-16.627-9.827-47.176-16.646-45.916-10.25 c0.399,2.027,2.29,4.53,4.202,5.562c7.551,4.076,20.07,8.778,27.175,10.207c14.966,3.01,38.186,29.303,37.377,42.322l-0.683,10.979 l27.739,1.389c15.257,0.764,88.746,1.545,163.309,1.735c182.856,0.467,188.654,1.162,217.564,26.059 c13.382,11.524,14.341,13.689,6.069,13.689c-3.725,0-5.794-1.302-5.794-3.646c0-5.455-7.983-2.994-8.802,2.713 c-0.38,2.648,0.924,6.154,2.897,7.792c1.973,1.638,3.588,5.421,3.588,8.406c0,6.401,8.377,12.046,12.201,8.222 c1.7-1.7,1.617-3.418-0.277-5.701c-2.106-2.537-1.928-3.917,0.793-6.176c1.928-1.6,3.505-4.994,3.505-7.543 c0-15.662,21.612,26.367,25.359,49.315c7.734,47.373-42.606,85.711-73.686,56.118c-6.742-6.419-10.593-17.769-12.946-26.551 c-2.008-7.494-2.529-15.576-0.114-22.948c1.032-3.152,12.373-27.16,17.643-23.903c3.195,1.975,8.983-3.461,8.983-8.436 c0-8.323-13.097-11.397-16.163-3.794c-1.132,2.805-5.794,10.258-10.361,16.563c-22.803,31.475-11.613,72.837,23.048,85.183 c50.677,18.058,91.331-45.846,64.067-100.707c-4.276-8.604-8.708-15.643-9.849-15.643c-3.52,0-2.303-4.407,2.56-9.27 c3.446-3.446,4.635-3.776,4.635-1.288c0,1.841,2.66,6.273,5.912,9.849l5.912,6.502l-1.381-7.163 c-0.956-4.961-0.281-8.076,2.199-10.133C678.648,4864.296,677.135,4860.237,668.617,4857.425z"/> <path d="M1713.719,424.884c-2.664,1.948-3.774,4.644-2.876,6.984h0c2.669,6.955,13.633,4.908,12.77-2.383 C1722.734,422.06,1719.584,420.595,1713.719,424.884z"/> <path d="M1710.669,466.297c-1.527,5.933-3.342,7.782-8.2,8.353c-7.195,0.846-8.837,8.701-2.183,10.448 c9.843,2.584,33.694,0.378,36.036-3.334c3.975-6.301,0.415-11.63-6.112-9.149c-11.932,4.536-13.016-6.666-1.234-12.759 c15.63-8.083,30.876,14.494,20.756,30.736c-9.216,14.791-26.306,20.525-27.598,9.259c-0.841-7.332-6.753-10.907-9.912-5.994 c-1.144,1.779-1.472,6.127-0.729,9.661l1.35,6.427l-10.339-6.978c-9.231-6.23-15.316-16.913-18.495-27.373 c-1.507-4.958-2.434-10.159-2.281-15.355c0.195-6.633,3.722-11.977,6.603-17.841c5.812-11.829,14.308-20.086,23.184-29.617 c9.046-9.712,17.233-19.743,18.194-22.292c1.722-4.569,1.774-4.565,3.638,0.257c1.04,2.691,3.543,5.525,5.562,6.3 c2.019,0.775,3.67,2.925,3.67,4.778c0,5.486,23.621,24.027,40.165,31.529c42.854,19.431,78.583-6.868,67.784-49.894 c-4.847-19.314-45.779-44.879-67.748-42.314c-8.267,0.965-9.717-1.32-4.601-7.251c30.098-34.891,5.609-134.335-38.571-156.632 c-68.634-34.638-149.98-12.48-149.98,40.853c0,7.495,5.215,3.943,11.752-8.006c37.182-67.966,140.75-50.378,172.964,29.373 c9.811,24.288,9.091,62.132-1.604,84.381l-8.077,16.801l-16.256,0.035c-18.082,0.04-22.917,1.905-21.648,8.353 c0.949,4.822,8.082,5.27,32.34,2.032c54.116-7.223,106.922,38.847,78.973,68.899c-17.314,18.616-61.386,10.058-82.228-15.969 c-2.264-2.827-6.175-5.793-8.69-6.591c-9.009-2.859-5.941-14.674,7.289-28.07c10.452-10.583,13.005-17.101,6.697-17.101 c-1.112,0-6.959,5.214-12.993,11.587c-13.448,14.204-13.815,14.214-19.978,0.579c-5.552-12.283-8.913-133.584-4.484-161.826 c1.797-11.462,1.504-13.729-2.267-17.499c-5.75-5.751-14.778-5.952-12.393-0.276c3.623,8.62,3.665,13.718,0.136,16.646 c-4.625,3.838-4.716,9.166-0.186,10.904c4.545,1.744,4.427,7.171-0.257,11.855c-3.433,3.433-3.433,3.953,0,6.463 c4.144,3.03,5.02,11.578,1.416,13.806c-3.617,2.235-2.722,9.972,1.422,12.291c3.049,1.706,3.245,3.018,1.06,7.1 c-1.521,2.842-2.044,8.394-1.21,12.842c0.818,4.362,0.318,9.986-1.129,12.69c-1.999,3.736-1.844,6.063,0.674,10.093 c1.8,2.881,3.912,14.102,4.695,24.936c0.782,10.834,3.975,29.002,7.095,40.373l5.672,20.674l-22.578,22.198 c-16.392,16.117-32.687,32.356-33.035,56.761c-0.282,19.764,9.23,39.892,26.906,49.644c10.247,5.653,26.434,4.438,37.128,0.496 c9.546-3.52,16.794-12.088,20.624-21.294c5.184-12.46,4.246-27.55-6.035-37.154 C1738.572,444.134,1714.851,450.046,1710.669,466.297z"/> <path d="M2012.359,4811.015c-7.948,0-11.34,5.196-5.049,7.735c12.969,5.233,31.881-5.102,31.852-17.406 c-0.029-11.909-4.806-22.75-11.567-26.246c-10.622-5.493-12.932-4.984-24.421,5.376c-4.745,4.279-4.315,8.261,0.66,6.102 c10.756-4.667,18.638-3.941,22.583,2.08C2033.266,4799.108,2025.779,4811.015,2012.359,4811.015z"/> <path d="M2181.854,4724.834c-41.967-0.707-47.089,0.089-40.836,6.344c4.155,4.156,92.985,1.607,97.864-2.808 c7.75-7.014,2.528-21.641-7.726-21.641c-4.771,0-5.394,2.85-2.007,9.178C2233.706,4724.422,2227.456,4725.602,2181.854,4724.834z"/> <path d="M2317.125,429.733c23.43-26.685-13.128-59.237-41.01-46.706c-5.575,2.505-11.448,4.676-16.748,7.726 c-71.423,41.109-85.683,45.117-114.76,32.258c-31.711-14.024-48.67-40.086-21.907-33.666c13.161,3.157,17.612,1.26,15.161-6.462 c-1.308-4.121-2.976-4.474-16.135-3.418c-15.82,1.27-19.06-0.513-16.364-9.007c1.445-4.554,2.688-4.82,16.474-3.533 c11.936,1.115,15.173,0.708,16.226-2.036c2.613-6.809-3.043-9.516-17.673-8.458c-16.715,1.209-17.085,0.131-5.791-16.884 c12.048-18.15,33.288-24.987,53.656-17.269c23.575,8.933,30.851,38.624,13.57,55.374c-7.439,7.211-8.698,13.996-2.597,13.996 c5.238,0,14.968-12.72,17.77-23.233c16.337-61.275-74.373-82.147-95.428-21.957c-6.093,17.419-22.966,17.412-22.966-0.009 c0-46.09-87.275-46.511-98.608-0.476c-3.605,14.643,14.849,48.968,22.385,41.635c2.393-2.328,1.791-4.108-3.133-9.27 c-18.363-19.249-13.436-43.992,11.539-57.951c17.523-9.794,50.824,4.953,60.013,26.576c4.518,10.632,4.716,10.48-12.474,9.582 c-15.359-0.802-15.643-0.712-15.643,4.977c0,4.518,1.021,5.616,4.635,4.986c25.041-4.362,30.276-2.896,27.609,7.733 c-1.613,6.425-1.646,6.435-17.399,5.114c-14.455-1.212-15.909-0.926-17.282,3.401c-2.229,7.022,2.18,10.281,9.436,6.976 c6.911-3.149,21.969-3.652,21.969-0.734c0,10.395-26.681,32.606-44.478,37.028c-24.34,6.048-37.942,3.671-62.124-10.856 c-7.01-4.211-19.524-11.733-27.809-16.715c-34.71-20.873-52.419-25.158-66.766-16.153c-23.852,14.97-15.724,53.379,11.295,53.379 c11.125,0,22.846-8.573,19.382-14.177c-1.61-2.605-10.26-2.689-10.26-0.1c0,9.013-18.27,7.694-23.832-1.721 c-19.832-33.572,23.237-42.156,66.704-13.294c24.239,16.094,35.262,21.96,50.744,27.005c42.051,13.702,85.887-3.203,95.315-36.758 c4.555-16.211,14.409-13.376,24.272,6.984c9.167,18.923,20.452,27.79,42.429,33.339c21.558,5.443,48.4,0.215,73.888-14.39 c8.04-4.607,18.79-10.581,23.888-13.276c5.098-2.694,9.791-5.42,10.428-6.057c20.968-20.968,62.571-15.071,62.571,8.87 c0,12.712-20.232,22.276-27.809,13.146c-4.306-5.189-9.27-4.216-9.27,1.818C2280.223,441.904,2304.876,443.684,2317.125,429.733z M2094.828,374.267c0,4.23-1.239,5.794-4.591,5.794c-5.243,0-9.06-10.451-5.219-14.292c2.577-2.577,10.13-1.842,9.932,0.966 C2094.884,367.691,2094.828,371.08,2094.828,374.267z"/> <path d="M2292.826,4787.933c-4.08,3.386-4.396,11.855-0.584,15.667v0c6.99,6.99,16.975,0.324,14.469-9.66 C2304.983,4787.051,2297.69,4783.896,2292.826,4787.933z"/> <path d="M2974.587,4795.922c1.592-4.147-3.001-10.399-7.641-10.399c-3.946,0-6.435,5.644-4.599,10.428v0.001 C2964.081,4800.471,2972.85,4800.449,2974.587,4795.922z"/> <path d="M1718.245,20.857c10.516,0,15.27-16.691,5.626-19.751c-12.618-4.005-22.112,8.133-13.274,16.97 C1712.127,19.605,1715.569,20.857,1718.245,20.857z"/> <path d="M1713.221,40.375L1713.221,40.375c1.739,4.531,9.877,4.816,11.57,0.405c0.686-1.788-0.181-5.177-1.928-7.532 C1718.948,27.972,1710.778,34.011,1713.221,40.375z"/> <path d="M2085.911,352.517c4.103,2.6,5.187,2.539,8.187-0.461c4.127-4.127,0.815-11.733-4.761-10.934 C2083.653,341.937,2081.342,349.621,2085.911,352.517z"/> <path d="M2398.522,414.822c11.411,0,20.748-0.835,20.748-1.854c0-5.063-6.859-7.426-21.9-7.546 c-30.381-0.244-43.064-11.381-28.989-25.456c5.498-5.498,3.456-10.198-3.823-8.797c-11.235,2.164-18.284,23.571-10.177,30.908 c4.659,4.216,6.398,12.746,2.599,12.746c-9.447,0-6.946,28.507,2.848,32.458h0c10.528,4.248,12.952,0.426,5.836-9.199 C2354.863,423.47,2367.079,414.822,2398.522,414.822z"/> <path d="M1687.746,70.723c4.028-4.028,2.459-12.787-2.291-12.787c-1.804,0-4.036,2.043-4.96,4.54 c-2.92,7.894-8.957,1.871-6.156-6.142c5.692-16.285,27.026-6.298,30.083,14.084c0.886,5.91,3.653,13.341,6.147,16.513h0 c8.748,11.121,20.215,5.555,23.929-11.614c4.235-19.574,9.524-26.454,20.43-26.577c6.043-0.068,6.441,0.455,5.079,6.658 c-1.692,7.704,1.893,11.332,7.005,7.089c7.386-6.13,3.636-19.026-6.672-22.945c-9.608-3.653-11.52-3.21-24.399,5.649 c-6.485,4.461-13.372,8.111-15.303,8.111c-1.932,0-8.294-3.65-14.138-8.111c-19.939-15.22-42.715-8.148-42.715,13.261 C1663.785,70.956,1679.477,78.992,1687.746,70.723z"/> <path d="M2343.789,415.815c7.023-7.023,1.853-15.95-8.398-14.496c-6.138,0.87-8.505,9.454-4.077,14.79 C2334.923,420.456,2339.25,420.354,2343.789,415.815z"/> <path d="M1457.533,10.428c0-6.559-4.3-10.428-11.587-10.428c-10.953,0-14.979,8.633-7.752,16.619 C1445.381,24.559,1457.533,20.67,1457.533,10.428z"/> <path d="M1596.579,229.427c0-2.949-1.545-4.635-4.249-4.635c-5.467,0-7.335,1.948-5.772,6.02 C1588.526,235.938,1596.579,234.825,1596.579,229.427z"/> <path d="M1708.007,142.881c-6.067,4.249-6.126,7.027-0.191,8.911c2.549,0.809,4.635,3.399,4.635,5.756 c0,2.357,1.304,4.812,2.897,5.455c7.403,2.987,8.488,1.317,9.164-14.108l0.685-15.643l9.849,0.621 c9.019,0.569,9.849,0.154,9.849-4.93c0-8.404-5.449-11.591-17.091-9.995c-6.965,0.955-11.425,0.358-14.452-1.933 c-8.517-6.448-21.758-1.369-21.758,8.344c0,3.389,1.778,4.056,9.849,3.696C1713.125,128.537,1716.959,136.611,1708.007,142.881z"/> <path d="M1722.879,105.412c0-3.009-1.806-4.86-5.214-5.344c-5.171-0.734-7.562,5.731-3.589,9.704 C1717.15,112.846,1722.879,110.008,1722.879,105.412z"/> <path d="M1569.65,233.014c1.583,4.124,7.629,4.438,9.013,0.468c1.484-4.254-0.667-8.69-4.211-8.69 C1570.381,224.792,1568.036,228.807,1569.65,233.014z"/> <path d="M3011.114,4614.677c-3.521-5.688-14.23-6.542-19.72-1.573c-4.138,3.745-5.064,3.777-12.107,0.418 c-5.219-2.488-8.861-2.945-11.536-1.448c-5.973,3.343-4.659,8.515,2.371,9.336c7.396,0.863,9.368,6.035,9.71,25.456 c0.127,7.225,0.864,14.785,1.638,16.801l0,0c4.793,12.49,12.48-1.346,12.533-22.557c0.041-16.472,2.194-21.296,8.74-19.584 C3009.79,4623.369,3014.24,4619.728,3011.114,4614.677z"/> <path d="M2652.164,417.14c4.635,0,5.793-1.159,5.793-5.794c0-3.186-0.59-5.794-1.311-5.794c-3.721,0-10.276,5.226-10.276,8.193 C2646.37,415.821,2648.621,417.14,2652.164,417.14z"/> <path d="M2379.368,308.501c9.626,3.403,20.806,2.694,29.51-2.642c8.704-5.336,14.514-15.426,13.948-25.62 c-0.566-10.194-7.915-19.877-17.801-22.428c-2.921-0.754-6.197-0.867-8.786,0.68c-2.59,1.547-4.068,5.157-2.518,7.745 c1.603,2.677,5.244,3.021,8.113,4.248c17.37,7.427-0.531,32.439-14.613,29.479c-3.41-0.717-8.451-1.757-11.206-2.31 c-23.742-4.768-25.278-50.394-2.315-68.773c60.945-48.779,118.403,32.655,66.731,94.574 c-26.647,31.931-31.781,57.309-17.786,87.907c3.6,7.87,5.321,16.315,10.654,23.065c5.789,7.325,12.65,13.75,20.013,19.468 c15.126,11.745,32.412,20.6,50.09,27.817c23.298,9.512,70.788,11.867,101.652,5.042c18.28-4.043,25.611-6.654,50.568-18.014 c16.416-7.472,41.022-24.909,57.037-40.419c14.258-13.808,16.858-15.47,19.403-12.404c1.616,1.947,4.756,3.541,6.977,3.541 c10.673,0,21.349,16.729,12.774,20.019c-4.849,1.861-4.359,7.79,0.643,7.79c11.762,0,19.753-14.751,13.314-24.578 c-4.561-6.961-10.001-6.351,58.405-6.543l58.458-0.164l6.221-6.216c7.564-7.557,3.299-18.117-7.317-18.117 c-6.121,0-7.541,4.225-2.959,8.806c7.228,7.228-1.754,8.302-75.185,8.99l-72.436,0.679l52.142-51.661 c118.593-117.499,179.643-140.511,265.285-99.996c122.827,58.106,102.016,256.015-29.486,280.401 c-5.537,1.027-8.69,2.893-8.69,5.145c0.001,9.001,41.49-4.951,63.19-21.249c16.813-12.627,20.746-16.452,30.684-29.838 c5.869-7.905,11.917-15.951,13.438-17.881c24.448-30.983,29.017-102.135,9.373-145.968c-13.842-30.886-20.427-40.53-42.728-62.571 c-13.844-13.683-28.815-27.951-46.427-36.63c-16.841-8.299-35.419-11.842-53.834-14.666c-39.396-6.041-80.279-3.025-118.306,8.953 c-34.202,10.772-62.863,29.094-91.206,50.619c-27.902,21.189-55.184,44.221-78.438,70.517 c-46.604,52.702-82.027,85.263-82.027,75.399c0-3.231,1.327-5.875,2.948-5.875c1.621,0,6.835-3.205,11.587-7.121 c13.767-11.348,10.358-29.958-5.489-29.958c-11.213,0-10.138,7.493,1.381,9.632c6.727,1.249,5.738,8.743-1.909,14.451 c-9.31,6.95-126.708,7.719-126.709,0.829c0-2.23,0.806-4.056,1.79-4.056c0.985,0,3.568-3.389,5.74-7.532 c16.78-32.005,1.087-71.261-28.488-71.261c-7.224,0-7.331-0.158-5.86-8.69c8.171-47.406,1.406-69.819-28.283-93.706 c-32.195-25.903-90.897,2.598-90.897,44.132C2349.738,281.233,2359.951,301.635,2379.368,308.501z M2709.197,342.072 c19.586-21.415,62.355-58.842,79.729-69.772c4.052-2.549,10.134-6.46,13.516-8.69c30.982-20.435,69.162-36.276,98.846-41.013 c36.115-5.764,100.517-2.1,117.838,6.704c2.105,1.07,11.649,5.846,21.209,10.612c9.56,4.767,17.967,9.576,18.683,10.688 c0.716,1.112,4.829,4.624,9.141,7.805c13.907,10.261,5.955,7.518-18.761-6.471c-30.648-17.346-100.372-21.901-130.728-8.542 c-2.549,1.122-11.419,5.036-19.71,8.698c-37.323,16.483-65.16,39.577-147.146,122.075c-35.688,35.912-68.538,67.094-73,69.295 c-4.461,2.2-15.932,8.759-25.492,14.575c-9.56,5.816-26.767,13.74-38.238,17.609l0,0c-20.527,6.924-68.568,11.08-83.428,7.218 c-28.532-7.416-55.974-18.534-67.206-27.227c-6.337-4.905-2.756-4.63,7.624,0.586c17.219,8.652,46.689,12.889,68.332,9.824 c13.63-1.93,54.097-15.104,57.297-18.652c0.637-0.707,4.809-3.819,9.27-6.915C2626.762,426.741,2668.543,386.52,2709.197,342.072z M2515.419,415.05c87.211,0.495,86.412,0.421,88.355,8.16c0.761,3.034,2.575,5.554,4.03,5.6 c1.176,0.037-12.104,10.899-14.511,12.26c-8.338,4.716-17.457,8.691-27.019,11.785c-46.408,15.02-103.268,9.301-132.105-33.128 c-5.649-8.313-5.839-12.197-0.375-7.662C2435.855,413.775,2462.51,414.75,2515.419,415.05z M2479.352,329.001 c28.55,13.372,22.562,57.378-9.45,69.454c-4.273,1.612-9.854,3.8-12.404,4.862c-13.947,5.812-30.803,4.061-32.567-3.384 C2414.235,354.807,2446.014,313.386,2479.352,329.001z"/> <path d="M3033.39,581.569c0-4-1.108-4.404-8.74-3.183c-13.742,2.197-16.772-6.583-18.415-53.358 c-1.065-30.32-2.319-40.329-6.774-54.08c-3.007-9.28-5.467-17.745-5.467-18.809c0-1.065,7.107-1.428,15.794-0.806 c19.522,1.397,28.531-2.602,35.167-15.609c13.287-26.044-10.046-53.369-34.69-40.625c-16.737,8.655-11.424,34.694,6.766,33.161 c8.999-0.758,13.844-8.802,5.302-8.802c-9.384,0-13.607-8.543-7.459-15.088c16.894-17.983,37.234,13.436,20.809,32.143 c-13.65,15.547-26.634,13.336-58.128-9.897c-65.209-48.104-125.925,13.699-78.161,79.56c20.589,28.39,50.171,43.058,86.836,43.058 h12.805l-1.631,9.849c-2.62,15.814-4.561,17.96-16.239,17.96c-11.163,0-12.911,2.595-6.512,9.666l0,0 c4.477,4.946,10.189,5.333,21.006,1.421c6.114-2.211,8.76-2.211,12.3,0C3017.468,594.069,3033.39,589.96,3033.39,581.569z M2998.046,522.625c-0.413,13.997-0.972,24.327-1.243,22.954c-0.27-1.373-10.5-3.805-22.73-5.406 c-71.347-9.334-113.389-92.251-60.725-119.764c10.663-5.571,37.397-3.306,47.007,3.983c22.909,17.375,27.229,24.081,33.748,52.397 l0,0C2997.682,492.336,2998.618,503.217,2998.046,522.625z"/> <path d="M2671.089,420.23c2.669,2.669,9.359,1.684,12.254-1.804c6.538-7.877-2.546-21.645-10.128-15.352 C2669.551,406.115,2668.164,417.305,2671.089,420.23L2671.089,420.23z"/> <path d="M2706.205,410.743c0.556-3.9-0.418-5.191-3.919-5.191c-5.65,0-7.764,2.917-5.808,8.016 C2698.536,418.93,2705.318,416.959,2706.205,410.743z"/> <path d="M3012.115,604.637c-1.139-7.68-7.349-10.651-14.388-6.884c-7.585,4.059-8.821,7.761-4.602,13.785 C2999.695,620.92,3013.771,615.805,3012.115,604.637z"/> <path d="M2991.739,4673.008c-3.74,4.508-6.438,4.537-10.857,0.119c-5.8-5.8-17.531-4.591-16.632,1.714 c0.429,3.004,2.694,5.558,5.375,6.062c5.778,1.086,8.03,4.443,8.076,12.038c0.019,3.25,1.287,7.161,2.816,8.69v0 c6.423,6.423,15.759-1.846,15.759-13.957c0-5.367,0.99-6.437,5.955-6.437c4.85,0,5.817-0.967,5.214-5.214 C3006.537,4669.62,2996.198,4667.636,2991.739,4673.008z"/> <path d="M2977.761,4605.951c1.573,1.896,5.212,3.446,8.086,3.446c7.101,0,11.273-5.592,9.484-12.716 c-1.209-4.817-2.848-5.824-9.484-5.824C2976.817,4590.857,2972.274,4599.339,2977.761,4605.951z"/> <path d="M2985.015,4581.089c2.543-0.857,3.218-11.316,3.421-53.005c0.139-28.567,0.905-149.445,1.701-268.62 c0.796-119.174,1.978-419.515,2.626-667.423c1.172-447.97,2.452-732.121,4.669-1035.896 c1.461-200.176,3.157-627.908,4.665-1176.101c0.645-234.525,1.788-497.844,2.54-585.154c1.278-148.371,0.502-176.823-4.672-171.233 c-1.167,1.261-3.323,436.935-5.006,1011.306c-1.336,456.306-2.455,693.722-3.318,704.502c-0.203,2.549-0.315,90.149-0.245,194.665 c0.07,104.517-0.297,216.102-0.813,247.966c-1.231,75.847-3.735,572.192-7.284,1443.469l0,0 C2982.073,4526.578,2982.341,4581.99,2985.015,4581.089z"/> <path d="M112.377,4785.523c-11.053,0-12.068,13.088-1.313,16.931h0c6.025,2.153,6.828,1.75,8.317-4.18 C121.466,4789.967,119.026,4785.523,112.377,4785.523z"/> <path d="M129.023,4608.488L129.023,4608.488c5.568,4.227,13.693,3.995,15.395-0.439c2.894-7.542,1.412-12.467-4.171-13.868 C128.516,4591.236,120.223,4601.808,129.023,4608.488z"/> <path d="M164.387,598.761c0-6.995-9.86-12.353-15.823-8.599c-4.986,3.14-6.182,9.356-2.624,13.642 C151.555,610.571,164.387,607.063,164.387,598.761z"/> <path d="M15.048,4786.571c-10.689-7.004-19.276,3.263-12.82,15.327v0c2.674,4.996,7.256,5.679,13.975,2.083 C22.563,4800.578,21.933,4791.082,15.048,4786.571z"/> <path d="M150.46,4615.799c-13.339,1.001-17.029,0.896-24.707-0.706c-5.868-1.224-7.811-0.62-9.768,3.035 c-2.902,5.423-1.351,7.49,5.622,7.49c6.237,0,7.919,5.165,7.963,24.449c0.018,7.773,1.271,15.26,2.813,16.802 c1.53,1.529,3.407,2.781,4.172,2.781c4.192,0,6.952-6.948,6.952-17.499c0-16.098,3.709-26.074,10.028-26.975 C162.912,4623.842,160.039,4615.08,150.46,4615.799z"/> <path d="M134.984,4586.802c1.858-3.187,4.743-744.323,7.531-1934.484c0.731-312.275,1.69-577.68,2.13-589.789 c0.44-12.109,1.53-258.221,2.422-546.916s2.004-525.555,2.47-526.353c3.248-5.562,0.831-378.665-2.457-379.356 c-3.188-0.669-3.615,20.56-4.007,199.3c-0.242,110.026-0.593,217.777-0.778,239.445c-0.186,21.668-1.044,217.202-1.905,434.52 c-0.862,217.318-2.058,486.894-2.659,599.058c-1.375,256.578-3.115,826.295-4.68,1531.829c-0.667,300.804-1.75,643.119-2.406,760.7 h0C129.543,4572.387,130.012,4595.326,134.984,4586.802z"/> <path d="M144.53,4826.004c-9.698,7.335-15.214,0.973-7.972-9.196c5.08-7.132,7.472-33.617,6.072-67.206 c-1.046-25.102,3.904-34.79,14.798-28.96c6.259,3.35,9.254,2.844,9.254-1.564c0-10.714-14.792-15.875-25.001-8.724 c-4.779,3.347-5.641,3.259-11.257-1.159c-10.54-8.291-21.89-3.759-25.028,9.993c-1.45,6.353-1.216,6.591,4.97,5.086 c16.604-4.039,19.664-1.308,22.363,19.956l1.377,10.852l-7.466-1.19c-8.529-1.361-41.079,6.723-51.497,12.79 c-20.836,12.131-45.633,10.031-59.39-5.03c-22.654-24.803,4.057-67.804,28.684-46.178c7.924,6.958-0.509,17.573-12.118,15.251 c-8.78-1.756-10.009,6.079-1.85,11.793c20.784,14.558,39.928-16.925,22.419-36.867c-20.753-23.637-51.385-5.155-51.716,31.204 c-0.264,28.999,10.079,40.651,38.631,43.517c13.136,1.319,12.874,0.232,2.702,11.232c-33.675,36.417-29.435,84.333,8.306,93.873 H50.81c24.023,6.072,55.203-9.118,74.358-36.227c14.637-20.714,42.664-26.044,57.73-10.978 c10.944,10.944,11.989,18.904,3.587,27.307c-9,9-22.279,3.238-13.893-6.028c6.953-7.683-0.758-12.425-8.625-5.305 c-9.049,8.189-1.854,30.926,9.788,30.926c23.472,0,35.824-25.716,22.223-46.269C186.022,4823.859,156.991,4816.58,144.53,4826.004z M83.891,4874.105c-1.611,0.697-3.279,1.304-5.007,1.813c-19.61,5.776-47.17-1.138-49.967-24.2 c-2.408-19.856,7.698-41.345,20.533-55.912c4.071-4.621,8.675-8.788,13.794-12.222c14.207-9.532,70.215-27.146,72.321-22.743 c8.047,16.82-3.936,43.651-10.469,59.056C116.521,4840.116,105.146,4864.911,83.891,4874.105z"/> <path d="M145.603,4692.23c0.924-4.597,3.51-8.406,6.657-9.805c2.83-1.258,5.146-3.535,5.146-5.058c0-4.408-9.302-6.167-15.386-2.91 c-4.275,2.288-6.198,2.344-8.298,0.244c-3.695-3.695-14.538-3.465-17.725,0.376c-3.245,3.91-1.099,6.16,5.876,6.16 c3.6,0,5.42,1.356,5.42,4.056c0.007,2.23,1.099,7.966,2.426,12.746l0,0C133.448,4711.468,142.395,4708.197,145.603,4692.23z"/> <path d="M70.398,4800.742L70.398,4800.742c4.34,6.625,7.458,7.049,13.254,1.803c5.236-4.738,5.318-7.353,0.403-12.784 C75.242,4780.024,63.178,4789.724,70.398,4800.742z"/> <path d="M163.931,4795.392c-0.451-3.905-2.339-6.658-4.9-7.144c-5.844-1.109-10.641,3.543-9.228,8.947 C151.884,4805.152,164.867,4803.495,163.931,4795.392z"/> <path d="M191.008,4795.951c0-3.333-1.79-4.841-6.373-5.368c-6.275-0.722-9.187,5.259-4.73,9.715 C183.251,4803.644,191.008,4800.607,191.008,4795.951z"/> <path d="M1403.879,59.865c4.967,0.703,5.304,0.149,3.871-6.373c-1.488-6.772-1.199-7.143,5.568-7.143 c10.296,0,15.752,6.705,17.62,21.651c0.949,7.6,3.407,14.708,6.074,17.571c8.338,8.95,21.03,3.286,24.147-10.775 c4.631-20.892,10.173-28.447,20.864-28.447c7.392,0,14.046,8.199,10.308,12.702c-3.728,4.492-6.988,4.513-6.988,0.044 c0-5.194-6.412-4.195-8.146,1.27c-3.721,11.724,13.551,15.962,21.883,5.37c17.192-21.856-15.853-41.22-38.975-22.839 c-11.702,9.302-13.814,9.675-21.377,3.781c-16.114-12.559-29.489-14.335-37.904-5.036 C1395.119,47.943,1396.954,58.884,1403.879,59.865z"/> <path d="M794.849,366.156c-5.505,0-6.47,6.434-1.264,8.432c4.608,1.768,4.552,15.6-0.079,19.443 c-1.956,1.623-14.051,3.838-26.879,4.923c-12.828,1.085-24.264,2.553-25.413,3.263c-6.407,3.96,0.471,5.653,22.966,5.653 c32.251,0,45.682,10.652,30.618,24.284c-2.519,2.28-4.022,5.048-3.339,6.153l0,0c2.19,3.545,10.097,2.148,14.872-2.627 c6.263-6.263,5.871-16.844-0.917-24.736l-5.552-6.455l5.552-6.598C815.355,386.075,808.724,366.156,794.849,366.156z"/> <path d="M242.48,403.829c-10.438-4.229-22.631-3.559-33.366-0.871c-13.143,3.291-22.904,12.17-33.576,19.869 c-6.06,4.371-11.372,9.303-18.129,12.833c-5.145,2.688-10.973,5.091-16.85,5.354c-5.311,0.238-11.49-3.337-15.789-6.276 c-3.507-2.398-6.315-7.853-8.124-11.567c-2.378-4.884-3.582-8.987-2.237-14.347c3.624-14.437,19.631-21.75,27.815-12.707 c7.135,7.883,2.76,14.895-8.199,13.143c-9.918-1.586-10.828-0.35-5.424,7.365c8.214,11.727,26.519,2.322,26.519-13.625 c0-22.258-35.486-25.03-44.416-3.471c-10.84,26.171,12.698,53.983,38.885,45.946c10.477-3.215,10.885-1.75,5.433,19.487 c-3.451,13.445-4.874,27.657-5.425,54.18c-0.88,42.352-7.721,61.807-18.09,51.438c-3.008-3.008-8.832-1.061-8.832,2.953 c0,1.62,2.346,4.583,5.214,6.583c6.683,4.662,14.285,4.833,17.96,0.404c3.282-3.955,10.606-4.621,12.746-1.159 c2.007,3.247,18.19,2.898,21.552-0.464c5.422-5.422,3.182-8.58-5.131-7.231c-20.335,3.3-25.58-97.355-6.6-126.66 c39.16-60.463,125.626-33.253,93.613,29.459c-1.147,2.247-3.511,7.146-5.253,10.886c-9.245,19.85-44.917,43.544-72.348,48.054 c-23.093,3.797-24.675,4.22-24.675,6.602c0,8.161,43.641-1.143,66.469-14.17c19.056-10.874,34.624-28.14,42.082-48.906 c6.195-17.249,6.661-37.464-3.093-53.528c-4.804-7.913-11.788-14.029-19.958-18.294 C244.357,404.641,243.431,404.214,242.48,403.829z"/> <path d="M1452.466,103.699c0.426-2.235-0.948-4.724-3.053-5.532c-4.601-1.765-11.658,4.556-9.317,8.345 C1442.535,110.459,1451.569,108.403,1452.466,103.699z"/> <path d="M1440.757,32.071c-1.308,1.309-1.724,4.087-0.923,6.174c2.106,5.489,11.905,3.602,11.905-2.293 C1451.74,30.84,1444.535,28.294,1440.757,32.071z"/> <path d="M1467.528,126.679c6.787,1.102,8.544,0.643,8.544-2.227c0-9.699-17.047-14.512-26.379-7.447 c-3.739,2.831-5.253,2.843-10.589,0.084c-8.389-4.338-17.492-0.111-17.492,8.122c0,4.903,0.978,5.654,6.814,5.228 c10.25-0.747,13.232,3.097,12.835,16.547c-0.19,6.467-0.258,13.063-0.149,14.656c0.373,5.47,11.785-1.639,11.785-7.342 c0-1.412,2.346-3.597,5.214-4.855c2.868-1.258,5.214-3.331,5.214-4.605c0-1.275-2.346-2.651-5.214-3.058 c-3.687-0.524-5.214-2.307-5.214-6.09C1452.898,128.004,1457.651,125.076,1467.528,126.679z"/> <path d="M1069.071,349.934c6.953,0,9.236-2.992,7.194-9.426c-2.312-7.285-11.34-5.039-12.271,3.053h0 C1063.367,349.013,1064.1,349.934,1069.071,349.934z"/> <path d="M505.311,410.187c5.532,0,5.944-8.176,0.517-10.259c-4.371-1.678-7.897,2.459-6.096,7.152 C500.388,408.789,502.898,410.187,505.311,410.187z"/> <path d="M121.079,534.165c9.17,3.124,18.584,5.706,20.92,5.739c6.387,0.089,3.369-5.141-4.393-7.612 c-27.082-8.623-56.247-26.919-75.172-47.158c-14.45-15.453-17.792-20.647-27.395-42.579c-15.57-35.559-14.153-93.269,3.046-124.09 c2.901-5.199,6.699-11.965,8.439-15.035c9.278-16.368,48.296-50.915,60.868-53.892c2.677-0.634,12.689-4.059,22.248-7.613 c24.139-8.971,71.389-9.566,94.974-1.197c36.308,12.885,64.402,31.215,108.961,71.088c20.744,18.563,85.72,84.561,87.488,88.866 c1.072,2.607-134.684,0.164-140.087-2.522c-4.048-2.012-4.82-3.889-3.766-9.157c1.544-7.72-5.359-9.46-11.834-2.985 c-4.306,4.306-4.344,4.62-1.255,10.391c5.553,10.375,12.482,11.459,73.279,11.459c44.61,0,56.738,0.618,54.575,2.781 c-6.681,6.681-1.943,20.628,8.917,26.244c8.228,4.255,13.356-1.686,6.06-7.021c-7.706-5.635-3.584-12.838,11.811-20.637 c7.882-3.993,14.463-2.536,18.419,4.078c2.682,4.483,41.982,34.902,52.821,40.885c47.795,26.38,92.593,34.308,137.164,24.273 c102.345-23.041,144.897-99.314,91.105-163.302c-32.042-38.115-34.175-66.625-6.823-91.217 c29.677-26.682,74.864-18.47,87.964,15.985c10.65,28.01-17.259,58.927-41.757,46.258c-12.662-6.548-11.668-26.645,1.317-26.645 c6.278,0,8.548-2.733,6.565-7.902c-4.906-12.786-33.362,3.613-33.362,19.227c0,30.739,51.657,37.21,68.231,8.546 c9.188-15.89,8.374-36.386-0.549-52.442c-11.049-19.88-29.056-26.088-50.646-25.384c-9.157,0.299-19.399,1.138-27.71,5.349 c-33.321,16.886-50.447,67.303-32.279,95.031l4.089,6.241h-8.409c-35.098,0-51.655,55.807-24.174,81.479 c11.305,10.56,8.333,11.219-50.667,11.219c-53.151,0-70.015-1.783-76.028-8.037c-9.594-9.977-9.034-17.455,1.306-17.455 c6.997,0,7.508-4.483,0.802-7.032c-8.267-3.143-17.171,4.512-17.171,14.761c0,7.157,10.099,18.56,18.916,21.359 c2.342,0.743,4.259,3.158,4.259,5.367c0,2.209,1.193,5.209,2.651,6.667c1.99,1.99,1.526,2.357-1.859,1.472 c-2.48-0.649-16.432-13.887-31.003-29.418c-49.874-53.161-122.399-122.095-128.454-122.095c-0.564,0-7.69-4.981-15.834-11.069 c-79.14-59.158-197.372-70.435-264.657-25.245c-20.773,13.952-41.957,32.994-55.913,53.94 c-14.705,22.071-25.177,48.936-28.538,75.317c-2.971,23.323-4.747,51.569,4.189,73.912 C43.24,484.654,76.843,519.094,121.079,534.165z M692.666,315.173c19.489,0.001,31.397,16.428,39.458,31.534 c4.006,7.508,4.32,16.212,4.05,24.529c-0.081,2.499-0.425,22.683-3.094,22.683c-3.772,9.426-6.331,11.347-9.116,6.841 c-0.842-1.362-2.868-1.962-4.504-1.334c-5.152,1.977-26.236-5.502-37.691-13.369C646.624,361.918,653.81,315.173,692.666,315.173z M550.632,419.911c1.409-0.887,2.957-3.698,3.44-6.247c0.854-4.511,3.181-4.666,86.945-5.794 c96.46-1.299,91.375-2.384,72.09,15.392c-11.553,10.649-30.158,20.08-49.605,25.146v0c-33.135,8.631-76.384,0.27-106.183-20.527 c-3.886-2.712-7.557-5.252-8.157-5.644C548.562,421.844,549.223,420.797,550.632,419.911z M82.13,253.573 c48.718-42.696,128.959-56.478,196.107-33.684c23.536,7.99,61.015,24.247,64.605,28.024c0.637,0.67,3.766,2.565,6.952,4.21 c22.122,11.421,75.233,57.633,128.83,112.096c83.235,84.579,100.597,94.212,165.363,91.74l31.24-1.192l-8.859,4.545 c-4.872,2.5-18.392,7.049-30.043,10.11v0c-21.727,5.708-56.112,7.436-68.692,3.451c-3.187-1.009-11.336-3.126-18.111-4.705 c-6.775-1.578-15.117-4.206-18.539-5.84c-3.422-1.634-10.394-4.838-15.492-7.12c-26.819-12.003-58.068-37.013-105.46-84.404 C300.553,261.329,269.667,239.741,207.467,229.213c-39.481-6.683-96.626,6.04-122.618,27.3 C74.342,265.108,71.936,262.507,82.13,253.573z"/> <path d="M462.941,404.774c0.911-4.699-5.867-7.778-9.383-4.262c-1.824,1.824-1.684,3.542,0.504,6.178 C457.681,411.05,461.901,410.14,462.941,404.774z"/> <path d="M488.92,407.722c3.434-6.416-1.136-11.909-9.131-10.977c-6.065,0.707-8.742,6.004-6.28,12.419 C475.46,414.247,485.954,413.266,488.92,407.722z"/> </g> </svg>