<?xml version="1.0" encoding="UTF-8"?>
<svg viewBox="0 0 682.24744 455.6225" xmlns="http://www.w3.org/2000/svg">
 <path d="m166.26 455.41c-25.139-20.733-3.3528-58.862-8.6925-86.802-7.7211-26.114-26.219 34.098-33.24 46.978-4.061 24.866-19.061 51.995-42.172 22.475-22.474-16.532-24.877-48.959-47.972-62.979-16.211-8.8318-44.864-42.081-30.065-54.663 2.912 15.625 26.881 44.414 16.005 11.337-14.511-15.096 7.2477-31.432 11.182-8.1963 10.224 19.637-7.2916-40.697 10.855-13.162 5.5625 10.886 10.827 52.549 16.881 17.329 3.7572-35.342 30.489 26.008 10.372 37.235-15.835 20.985 17.66 45.792 33.404 55.616 7.8608-22.863 17.877-44.567 26.819-66.3 14.411-31.105 27.904-64.638 25.017-99.525-18.03-1.1823-49.504-12.821-62.242-4.6545-1.488 23.119-14.044 62.83 23.76 55.234 27.483 6.5742 14.311-44.715 2.6414-24.086-2.1807 21.806-35.61 4.5845-22.108-13.785 0.67128-24.426 45.089-10.388 54.035-2.1023 5.3577 32.863-15.641 69.572-53.449 56.015-37.528 0.4778-37.61-39.62-30.022-66.292 5.8251-34.546 15.49-69.068 30.906-100.55 18.001-30.513 32.235-64.017 57.371-89.572 27.028-15.44 6.4069 35.857 9.0429 49.349-5.3167 12.473 2.1034 58.356 6.6668 23.238 3.6704-25.917-1.7425-55.545 11.127-78.706 20.985 9.5875 26.437 42.021 37.395 62.497 11.172 39.036 32.983 80.272 19.685 121.36-18.623 3.4861-49.781-3.581-39.497 27.133-0.87432 40.103-3.06 80.205-2.205 120.35 17.464 14.588 44.217 11.258 65.988 13.453 33.377 10.993 47.951-19 43.468-48.044-3.9872-23.88 13.06-73.878-27.066-63.592-18.474-2.8664-37.377-3.0723-29.983 21.664 0.86572 21.014-10.212 61.446 24.709 49.646 14.439 2.167-0.74306-49.911 1.0459-17.615 4.8024 22.639-32.974 15.573-20.19-5.9424-9.194-27.104 25.296-32.566 40.549-24.327 2.1529 21.897 2.9209 44.317 3.0294 66.492-22.979 4.3405-50.811 6.9124-72.609-1.3642-3.6414-34.604 1.1962-69.431 0.2727-104.16 24.938-7.0619 52.628-1.7023 78.605-4.2691 34.083-2.8022 14.049-49.438 17.502-71.996-1.7499-14.814 0.61217-43.328-5.632-50.215-5.6502 22.571 10.766 60.142-6.546 73.491-20.466-3.699-70.658 14.543-60.937-22.583 4.4943-28.853 5.7968-58.089 9.2714-87.035 18.886-18.906 51.704-4.3501 76.282-10.744 20.787-2.7649 55.772 7.6889 48.848-24.962 2.5647-8.8646-0.5856-53.766-2.9542-33.947-3.3195 18.859 4.8913 54.911-26.914 44.534-40.816 13.346-28.658-35.606-30.668-60.079 5.9002-27.243 50.95 1.0476 71.356-10.314 36.637-6.2715 73.387-15.672 110.38-18.273 16.895 18.656 34.865 36.038 52.575 53.872 21.332 16.031 35.578 39.097 54.257 57.974 20.2 20.065 48.986 31.107 69.124 48.019-16.608 9.1459-6.8697 12.074 0.1724 26.339 5.2173 17.852-28.844-7.6842-11.513 14.656-2.266 28.758-36.791-42.534-21.704-6.4498 14.262 13.68 3.7662 29.881-7.0966 7.5703-6.3707-16.163-24.517-30.065-11.639-3.0754 10.499 10.902 8.2587 32.691-6.748 14.965-6.8946-7.1445-26.085-37.273-16.842-12.594-6.2064 58.778-17.978 117.32-35.106 173.97-10.551 26.919-23.284 62.983-54.116 70.7-7.128-25.014 5.3572-51.779 3.4261-77.904-0.16646-14.152 10.994-59.706-0.36066-57.696-5.0375 43.919-3.8279 88.805-13.173 132.12-24.623 11.42-30.63-38.597-41.014-55.679-16.161-52.029-20.456-106.99-22.208-161.18-1.0901-27.553 9.9261-42.691 10.048-66.009 23.498-0.0698-14.753-15.425 8.6922-22.156 4.7603-4.605-11.785-24.319 8.2041-25.677-28.597-11.697 25.517-21.889-6.0116-27.85-6.0035-16.166 24.06-13.985 6.0254-28.989-7.5955-19.278 15.939-25.529 11.704-2.7502 13.631 14.545-1.273 23.497-4.6863 27.07 30.914 4.0562-20.012 25.95 9.2427 30.819-1.6823 12.665-32.66 7.5622-7.7729 17.638 14.851 15.792-36.459 17.328-2.1867 21.398 11.229 12.686-20.401 11.711-7.1632 23.862-0.31328 16.932 35.721-1.8489 27.048 24.538 1.5676 20.168 10.514 52.318-21.416 42.958-32.046 10.161-8.0442-64.129 1.3767-25.333 2.7716 29.738 6.6845-6.2299 4.6029-17.172-29.73-9.4602-27.417 24.934-24.418 44.917 25.932 6.69 55.309 2.6451 44.196-30.666-5.1385-60.803-1.5954-122.17-9.7566-182.72-28.607-1.5515-57.797 4.297-85.932 9.1754-3.0449 18.517-9.7057 49.869-1.3474 63.689 23.172 5.8977 42.992-2.4095 37.452-29.127 3.5326-28.596-45.977 6.2359-19.826 5.6543-7.1925-21.766 26.428-10.168 14.771 8.4474 1.5673 15.665-34.981 12.069-32.467-1.1583 2.2671-22.28-4.76-54.286 27.982-44.504 38.316-10.913 18.247 40.053 21.566 61.598 6.5433 35.156-37.577 21.166-58.591 25.717-23.606 0.28719-53.642-4.2041-48.18 29.403-6.8611 33.615-3.1684 68.189-2.7222 102.22 6.3431 11.836 47.078 10.62 51.741-0.32041-0.68657-23.217-0.0457-46.601-4.196-69.55-18.84-5.7342-28.096 1.3747-25.385 21.721-6.4418 11.622 1.5392 44.827 2.9433 15-7.4746-21.853 29.686-24.65 17.15 0.0351 3.8951 21.927-4.0357 35.216-27.152 29.551-24.064-0.0943-7.1827-40.974-12.653-59.252-9.2145-36.997 35.026-30.083 58.115-30.83 16.76 16.659 5.5644 60.684 11.634 87.45 11.427 39.261-34.087 28.361-57.783 33.094-12.388 2.7553-34.961-6.279-28.838 14.109 0.21146 31.138-0.91975 62.68 2.2954 93.543 21.548 0.77221 60.853 12.567 72.125-4.0933 0.84745-27.12 3.3328-54.395 1.7145-81.463-17.229 0.50867-36.541-1.9582-51.704 5.6525 1.6448 13.817-10.191 49.037 14.195 42.131 16.94 4.4264 18.178-7.0025 16.266-21.86-4.9991-16.465-11.01 7.4654-10.815 14.572-30.695 8.5064-19.341-52.112 9.8882-36.898 25.693-4.7731 14.147 27.538 17.162 43.545 7.7472 23.757-21.844 17.063-36.498 18.07-41.218 11.963-25.741-37.527-28.824-62.06-7.337-35.545 38.572-16.468 58.692-23.956 41.487-14.447 25.005 35.388 28.939 59.651-0.90593 30.579 4.0389 61.126 2.1201 91.619-21.806 11.517-52.273 2.9474-77.305 4.5535-36.215-1.6212-72.413-0.64144-108.05 6.3623-24.391 2.2169-49.055 5.5169-73.555 4.4288zm320.56-150.45c26.032 9.8064 20.17-45.939-2.9218-30.136-23.886-8.0035-18.304 43.499 2.9218 30.136zm-6.345-8.3287c-15.766-19.79 29.552-20.675 8.3624 0.15942-2.2626 1.9557-6.3877 2.3483-8.3624-0.15942zm92.544-13.195c10.718-18.443-33.326-24.145-27.997-4.6521-11.316 20.184 25.032 25.144 27.803 13.535l0.19382-8.8826zm-18.89 8.2167c-16.237-19.883 26.878-20.838 7.9562-0.0813l-5.3369 0.52567-2.6192-0.44437v-3e-5zm20.791-41.111c0.0118-17.845 19.309-66.07-12.139-62.151-21.911-10.001-12.276 50.531-6.6971 31.635-6.2596-14.088 10.434-38.553 16.867-21.634-3.3466 14.783 7.8008 46.941-14.661 43.959-8.768 2.6774-26.751 0.52872-26.301-3.1038-3.6221 18.576 32.53 7.9877 42.933 11.295zm-40.97-21.832c1.2503-11.778-1.4947-44.909-2.4472-14.406-0.50483 2.2087-0.38682 29.672 2.4472 14.406zm-386.03-11.5c3.8976-18.9 8.5206-41.656-18.812-33.215-23.955-1.2682-16.012 44.096 9.3205 33.135 2.9209-0.9614 7.4259 3.0114 9.4911 0.0802zm-17.849-10.241c-17.954-22.709 33.073-16.861 7.087 0.55286l-3.2151 0.80578-3.8719-1.3586zm89.103 4.9356c4.8502-18.142 0.54068-52.641-24.692-30.737-12.926 0.95431-12.304 32.473-2.4479 32.371 9.0525-0.39999 18.153-0.34897 27.14-1.6345zm-19.319-9.411c-15.581-20.181 26.132-27.693 11.183-1.7989-2.3249 3.8188-7.6483 7.4316-11.183 1.7989zm93.966 0.16243c8.4323-10.213 8.4812-41.167 2.153-51.951-5.6321 12.526 0.8909 29.95-3.7841 41.449-35.268 12.701-13.655-36.612-13.441-54.301 12.173-6.7226 42.724 2.6069 39.801 3.1738-8.0586-9.113-54.377-25.926-45.365 4.3872 2.5643 20.583-20.71 69.411 17.334 57.682l3.3021-0.4401h3e-5zm240.8-12.215c-6.8712-30.165 47.542-34.506 59.299-16.334 3.3725-21.205 10.28-53.052-14.266-66.371-17.267-10.847-41.371-31.247-57.452-31.735 2.4349 37.077 9.4798 73.653 9.0748 110.96-0.35849 6.0616 1.7633 16.205 3.3443 3.4814zm-172.3-119.8c6.355-9.7802 1.714-20.638-3.8053-7.6186-21.249 4.7555-15.325-32.511 5.6704-23.789-16.645-13.485-30.801 2.6609-22.75 22.626-2.9981 15.549 11.119 7.6745 20.884 8.781z"/>
</svg>
