<?xml version="1.0" encoding="UTF-8"?>
<svg width="327.98mm" height="155.26mm" version="1.1" viewBox="0 0 327.9812 155.25558" xmlns="http://www.w3.org/2000/svg">
 <g transform="translate(47.038 .82326)">
  <path d="m111.3 154.22c-1.9478-0.38744-3.9618-0.15125-5.8983-0.59148-1.7654-0.59416-3.5793 0.2404-5.3649 0.21844-1.5461-0.13384-2.6081-1.7063-4.1971-1.631-1.3812 0.24739-2.7398 0.69528-4.1622 0.64211-4.2077-0.0491-8.4002-0.47342-12.599-0.71967-3.7735-0.30143-7.5704-0.39049-11.32-0.93762-2.8214-0.46321-5.477-1.5812-8.2659-2.1872-3.9741-0.98491-8.0175-1.6774-11.953-2.8191-2.5168-0.72057-4.9879-1.6111-7.5514-2.1577-1.4499-0.45071-2.7494-1.2731-4.2117-1.698-2.1307-0.67781-4.272-1.3381-6.3149-2.2576-2.3212-1.048-4.5757-2.2608-6.9991-3.0668-2.22-0.88078-4.2088-2.322-6.5679-2.8448-3.7674-1.3766-7.3779-3.1454-10.995-4.8701-2.6855-1.3365-5.4314-2.6151-7.8101-4.4698-2.1953-1.6342-4.3792-3.2962-6.7633-4.6512-4.4975-2.939-8.5874-6.4563-12.506-10.119-2.6221-2.5269-5.2681-5.0967-7.2345-8.1854-0.83706-1.2937-2.0538-2.2689-2.9145-3.5448-3.4666-4.7832-6.4901-9.8778-9.2417-15.101-1.4275-2.9071-2.4986-5.9777-3.4768-9.0601-0.65594-2.1129-1.0319-4.3124-1.0299-6.5271-0.13008-2.1836-0.81849-4.2901-0.87507-6.4819-0.25338-5.0614 0.04191-10.152 0.8165-15.159 0.42369-2.606 1.2709-5.1207 1.6839-7.7302 0.44446-3.0624 1.0827-6.1355 2.4395-8.9388 1.7754-3.7588 4.273-7.1075 6.6073-10.527 2.3444-2.9667 4.9476-5.7324 7.7325-8.289 1.3309-1.0962 2.6395-2.2234 3.9728-3.3141 2.9043-1.8316 6.0382-3.2691 9.1739-4.6547 1.6068-0.71403 3.2713-1.2951 5.0012-1.6259 3.4313-0.853 6.9463-1.2922 10.447-1.7449 3.0461-0.021172 6.0724 0.49836 9.0501 1.0971 2.3049 0.51735 4.5266 1.3497 6.8303 1.8737 2.4933 0.95419 4.6672 2.572 6.6576 4.3226 1.4753 1.2117 3.048 2.3609 4.115 3.9779 2.2983 3.3432 4.0321 7.0267 5.8995 10.618 2.2632 3.5249 2.033 6.576 1.644 10.225-0.20414 1.8492-1.2138 3.4518-1.7432 5.2024-0.20954 1.2713-0.99591 2.3538-1.5868 3.4746-2.3418 4.0808-5.368 7.7594-8.8542 10.913-0.69272 0.71755-1.5925 1.0744-2.5129 1.3844-1.9165 0.915-3.8272 1.8565-5.8581 2.4992-1.6367 0.54148-3.3084 1.0736-5.0474 1.1022-1.9137 0.19078-3.8051 0.74154-5.7441 0.5195-3.1595-0.28262-6.2262-1.1934-9.2251-2.1886-3.5062-1.207-6.8658-3.1747-9.1097-6.1901-1.6372-2.1891-2.8439-4.6786-3.8169-7.2241-0.94747-2.6622-1.2433-5.5334-1.0924-8.3441 0.32642-2.6469 1.0446-5.2453 2.0022-7.7314 0.58922-1.213 1.3177-2.3588 1.9876-3.529 1.439-1.9204 3.2155-3.5929 5.168-4.9836 1.4084-0.95382 3.1976-0.90191 4.8275-1.0059 2.2965-0.0068 4.6648 0.02075 6.858 0.77717 2.3821 1.0682 4.2939 2.9706 5.8908 4.9961 1.2582 1.6718 2.3073 3.653 2.2368 5.8037-0.030546 1.7315 0.18385 3.5416-0.43943 5.1959-0.91797 2.036-2.2441 4.0132-4.1922 5.184-0.84363 0.57828-1.8846 0.26051-2.6932-0.20618-1.5095-0.9604-3.0727-2.0365-4.9073-2.211-1.3274 0.0914-2.1803 1.3579-2.7333 2.439-0.7536 1.44-0.95715 3.1866-0.29089 4.7006 0.65052 1.6608 1.7915 3.4098 3.6596 3.7996 3.6531 0.93083 7.6082 0.84113 11.144-0.52599 2.7595-1.0354 5.4528-2.682 6.9861-5.2775 2.1589-3.4221 3.548-7.3903 3.5871-11.463 0.068124-2.5492-0.26045-5.1688-1.4481-7.458-2.0233-4.4365-5.3926-8.3428-9.7812-10.558-1.8417-1.0202-3.8703-1.656-5.9544-1.9336-4.0266-0.67473-8.2701-0.86504-12.178 0.50927-2.7167 0.87432-5.1146 2.4492-7.5946 3.8161-1.7401 0.88903-3.0388 2.409-4.3847 3.7882-1.5074 1.6839-3.0658 3.3776-4.1307 5.3863-1.2988 2.8733-3.209 5.4288-4.3613 8.373-1.2668 3.0706-2.3142 6.2426-3.0102 9.4923-0.45423 3.4215-0.38364 6.8899-0.27114 10.332 0.11854 1.6083 0.0933 3.27 0.59778 4.8157 0.7341 1.5525 0.766 3.3135 1.3987 4.9026 0.88112 2.6848 2.114 5.2311 3.1945 7.836 1.2469 2.9419 1.8945 6.1804 3.7334 8.8433 1.9607 2.3585 3.4202 5.0983 5.5153 7.3476 0.878 0.88617 1.9077 1.6099 2.7482 2.5396 2.5681 2.61 4.8851 5.4849 7.7614 7.777 1.2649 1.0666 2.4313 2.2434 3.759 3.2375 3.2294 2.6404 6.6713 5.0054 9.9126 7.6294 0.70392 0.77712 1.6259 1.2872 2.5922 1.6749 2.937 1.294 5.5676 3.253 8.6592 4.1926 2.846 0.59424 5.5547 1.7023 8.2447 2.7826 1.201 0.49795 2.3953 1.0323 3.4554 1.7932 2.2512 1.1867 4.7809 1.676 7.216 2.3448 2.8813 0.72064 5.6994 1.6805 8.4332 2.8388 3.0116 1.1695 6.199 1.7608 9.2619 2.7708 3.9017 1.2507 7.7779 2.6086 11.78 3.5152 2.0999 0.46877 4.1608 1.085 6.2148 1.7181 4.2096 1.0887 8.4853 1.9246 12.796 2.4955 3.3141 0.53966 6.5713 1.4053 9.916 1.7594 3.621 0.46747 7.272 0.59817 10.917 0.71183 3.4857 0.13756 6.9484 0.60785 10.437 0.68597 7.9138 0.32521 15.836 0.27669 23.753 0.45949 2.0338 0.11021 4.128 0.0369 6.0904 0.65723 1.3382 0.37188 1.6409 2.0313 2.9083 2.4937 1.2342 0.37935 2.2293-0.75853 2.914-1.6208 1.6992-2.0585 4.4492-2.6152 6.9435-3.039 5.184-0.80037 10.356-1.7129 15.437-3.0295 3.3454-0.8056 6.85-1.3245 10.266-0.644 2.0297 0.37465 4.1697 0.19643 6.0497-0.6871 1.4669-0.71841 2.9743-1.4253 4.617-1.617 1.6093-0.18341 3.1102-0.8114 4.6218-1.3481 3.0876-0.96355 6.307-1.3937 9.4183-2.2704 2.8352-0.76106 5.6856-1.5391 8.3613-2.7638 2.4701-0.92489 5.1387-1.0678 7.6427-1.8767 1.4577-0.50265 3.0005-0.9305 4.5545-0.671 1.4372 0.0683 2.4325-1.1539 3.675-1.6662 3.7628-1.8563 7.857-2.927 11.646-4.7144 2.4887-0.96197 5.203-1.4319 7.4537-2.9338 2.836-1.5523 5.8144-2.8383 8.5667-4.5448 2.6448-1.5917 5.2612-3.2686 7.5595-5.3409 1.7778-1.4287 3.849-2.447 5.5377-3.9943 1.598-1.2524 2.8001-3.0748 4.7461-3.835 1.1231-0.3837 2.6251 0.12025 3.0777 1.2634 0.29014 1.2698-0.69422 2.3662-1.4875 3.2351-1.3797 1.272-2.7254 2.5849-3.9229 4.034-1.923 2.1833-3.3853 4.9022-5.9889 6.377-3.3435 2.4526-5.9539 5.7174-8.9098 8.59-2.5202 2.1041-5.4114 3.6811-8.171 5.4361-3.7009 2.5448-7.8241 4.3701-11.706 6.61-3.9079 2.2341-8.019 4.1-12.194 5.7756-3.3645 1.1721-6.5502 2.7804-9.8523 4.1078-1.8281 0.77357-3.5683 1.747-5.4645 2.3557-6.248 2.2377-12.629 4.0862-18.862 6.3664-1.925 0.71177-3.9842 0.91737-5.9192 1.5953-3.5372 1.0915-7.1713 1.8333-10.782 2.6368-3.5554 0.80099-7.1541 1.4165-10.789 1.7098-1.4369 0.14082-2.8688 0.35983-4.2653 0.71853-5.5817 0.58279-11.218 0.20348-16.8 0.76928-1.5353 0.39878-3.1529 0.32428-4.7291 0.41878-3.1164 0.0899-6.2528 0.0291-9.3455 0.47339-1.9909 0.38493-4.0384 0.33621-6.0575 0.44618-4.579 0.11096-9.1674 0.24391-13.744-4e-3 -0.20006-0.0171-0.40032-0.0357-0.59839-0.0695zm15.782-8.4828c2.5215-0.10522 5.0449-0.24921 7.5692-0.21154 1.1941 0.23532 2.3658-0.32606 3.5658-0.31514 3.3714-0.26465 6.7643-0.0941 10.128-0.49088 2.6229-0.24941 5.222-0.72887 7.7537-1.4574 2.5178-0.61581 5.1409-0.40596 7.6693-0.93992 3.1971-0.85862 6.5733-0.6286 9.7876-1.389 1.6753-0.69361 3.5085-0.87792 5.27-1.2586 2.7133-0.54458 5.4832-0.85786 8.1374-1.6611 0.68855-0.0135 3.6331-1.9408 0.27531-1.0465-1.8752-0.0452-3.3542 1.4828-5.2323 1.4304-1.01 0.12729-1.9484 0.57758-2.9762 0.61221-3.1007 0.37131-6.2736 0.1461-9.3254 0.89126-5.0452 0.69981-10.133 1.0457-15.214 1.3759-3.407 0.18962-6.8743 0.22838-10.166 1.2345-2.5186 0.44173-5.0935 0.28112-7.6384 0.31787-10.764-0.10226-21.528-0.21531-32.29-0.42645-5.2705-0.0889-10.534-0.43169-15.772-1.0177-4.9294-0.4949-9.8597-1.0375-14.729-1.9678-4.9303-0.82051-9.8759-1.5989-14.714-2.8776-2.5859-0.6961-5.178-1.3741-7.7561-2.0961-1.6506-0.60176-3.2761-1.2752-4.9575-1.7945-2.598-0.91064-5.2747-1.5812-7.8595-2.5277-1.6113-0.59658-3.109-1.5099-4.8164-1.8286-2.3943-0.75435-4.5368-2.1115-6.8844-2.987-2.3425-0.99831-4.8684-1.6553-6.9924-3.1028-1.6127-0.86727-3.4397-1.1952-5.0972-1.962-1.8834-0.76826-3.7008-1.6919-5.5708-2.4868-2.2395-1.1988-4.3576-2.6278-6.6716-3.6836-1.1011-0.24213-1.8368-1.2304-2.9101-1.5641-1.7579-0.6779-3.2752-1.8452-4.8015-2.9268-1.4172-1.0539-2.6756-2.3062-4.1598-3.2736-2.1307-1.4229-4.2535-2.8711-6.1497-4.6041-1.7895-1.5736-3.465-3.2868-4.8743-5.2124-0.85681-1.1347-2.1287-1.8225-3.0591-2.8843-2.1542-2.2337-4.0855-4.6703-5.901-7.1827-0.24033-0.50563-1.134-0.90414-0.72682 0.0084 0.73108 1.8525 1.7601 3.5724 2.687 5.332 1.5285 2.8342 3.3853 5.5164 5.7739 7.6968 3.2089 3.037 6.3443 6.1828 9.8951 8.8271 1.597 1.1178 3.3955 1.9134 4.9739 3.0637 3.9809 2.9082 7.9914 5.9115 12.642 7.6739 2.0177 0.77251 4.0453 1.6322 5.6914 3.0686 1.918 1.2955 4.1991 1.8578 6.2691 2.8515 1.909 0.9031 3.8822 1.66 5.8913 2.3071 2.9962 1.1321 5.8199 2.6746 8.8486 3.7284 3.8407 1.3488 7.7566 2.5198 11.475 4.1913 1.1797 0.71026 2.498 1.1562 3.8584 1.3588 2.0192 0.44464 3.8438 1.4652 5.831 2.0164 3.7064 1.0824 7.4418 2.0715 11.191 2.9939 1.3992 0.39075 2.8649 0.35424 4.2694 0.72142 3.7701 0.90656 7.5347 1.9328 11.416 2.2401 4.31 0.36026 8.6443 0.47623 12.929 1.103 2.5824 0.33596 5.1893 0.0686 7.783 0.19326 1.8216 0.0584 3.658 0.0778 5.4514 0.42385 4.0932 0.19468 8.1932-0.0265 12.286-0.14358 2.643-0.0978 5.2854-0.21393 7.9272-0.34126zm-159.36-64.161c-0.23677-0.96297-0.94213-1.7476-1.6099-2.4532-0.93553-0.77823-0.26794 1.0875-0.03328 1.4436 0.30948 0.52691 1.0029 1.874 1.6106 1.4929 0.03122-0.15934 0.03159-0.32181 0.0326-0.48329zm57.612-41.722c2.2149-2.6353 3.4006-6.0643 3.3587-9.5008-0.04983-1.8562-0.13273-3.7358-0.54615-5.5515-0.01837-0.7662-1.0311-0.99523-0.90759-0.05633-0.1841 3.1462 0.43862 6.3454-0.258 9.4561-0.60956 2.0108-1.4662 3.9684-2.6412 5.7141-0.31677 0.26616-1.4308 1.4164-0.48798 1.3884 0.59938-0.35447 1.0373-0.92742 1.4822-1.4501z" stroke-width=".35278"/>
 </g>
</svg>
